<svg width="500" height="500" viewBox="0 0 500 500" fill="none" xmlns="http://www.w3.org/2000/svg">
<path d="M392.25 268.44L319.53 240.94C314.5 239.04 311.97 233.42 313.87 228.4L351.94 127.74C353.84 122.71 359.46 120.18 364.48 122.08L410.6 139.52L432.39 189.82L404.8 262.78C402.89 267.81 397.27 270.34 392.25 268.44Z" fill="#F5F5F5"/>
<path d="M410.6 139.52L399.89 167.85C398.12 172.52 400.48 177.75 405.15 179.51L432.39 189.82L410.6 139.52Z" fill="#EBEBEB"/>
<path d="M399.31 170.48C399.31 170.48 396.35 177.22 403.32 182.43C403.58 182.63 403.86 182.8 404.14 182.97C407.46 184.95 429.3 197.97 429.5 197.43C429.72 196.85 432.38 189.82 432.38 189.82L405.14 179.52C405.14 179.52 398.43 176.72 399.31 170.48Z" fill="#E0E0E0"/>
<path d="M394.22 164.39C394.08 164.75 386.44 162.2 377.15 158.69C367.86 155.18 360.44 152.03 360.58 151.67C360.72 151.31 368.36 153.86 377.65 157.37C386.94 160.88 394.36 164.03 394.22 164.39Z" fill="#E0E0E0"/>
<path d="M409.89 188.63C409.75 188.99 397.24 184.6 381.95 178.82C366.66 173.04 354.37 168.05 354.51 167.69C354.65 167.33 367.15 171.72 382.45 177.5C397.74 183.28 410.03 188.26 409.89 188.63Z" fill="#E0E0E0"/>
<path d="M409.82 203.89C409.68 204.25 396.06 199.44 379.39 193.14C362.72 186.84 349.32 181.43 349.46 181.07C349.6 180.71 363.22 185.52 379.89 191.83C396.56 198.12 409.96 203.52 409.82 203.89Z" fill="#E0E0E0"/>
<path d="M405.05 216.51C404.91 216.87 391.29 212.06 374.62 205.76C357.95 199.46 344.55 194.05 344.69 193.69C344.83 193.33 358.45 198.14 375.12 204.45C391.78 210.74 405.19 216.14 405.05 216.51Z" fill="#E0E0E0"/>
<path d="M400.28 229.13C400.14 229.49 386.52 224.68 369.85 218.38C353.18 212.07 339.78 206.67 339.92 206.31C340.06 205.95 353.68 210.76 370.35 217.07C387.01 223.36 400.41 228.76 400.28 229.13Z" fill="#E0E0E0"/>
<path d="M395.5 241.75C395.36 242.11 381.74 237.3 365.07 231C348.4 224.69 335 219.29 335.14 218.93C335.28 218.57 348.9 223.38 365.57 229.69C382.24 235.98 395.64 241.38 395.5 241.75Z" fill="#E0E0E0"/>
<path d="M202.06 313.32L106.19 346.89C102.87 348.05 99.24 346.3 98.08 342.99L49.98 205.62C48.82 202.3 50.57 198.67 53.88 197.51L149.75 163.94C153.07 162.78 156.7 164.53 157.86 167.84L205.96 305.21C207.12 308.53 205.38 312.16 202.06 313.32Z" fill="#EBEBEB"/>
<path d="M150.99 172.481L58.243 204.959L105.921 341.112L198.668 308.634L150.99 172.481Z" fill="#E0E0E0"/>
<path d="M149.334 171.833L56.5869 204.311L103.356 337.868L196.103 305.39L149.334 171.833Z" fill="#FAFAFA"/>
<path d="M196.09 305.39C195.7 304.27 176.87 250.66 149.2 171.88L149.37 171.96C121.24 181.81 89.77 192.84 56.64 204.44H56.63L56.72 204.25C74.2 254.42 90.47 300.75 103.46 337.81L103.31 337.74C159.72 318.08 195.18 305.71 196.09 305.39C195.18 305.71 159.75 318.16 103.39 337.98L103.28 338.02L103.24 337.91C90.25 300.84 74.02 254.51 56.45 204.36L56.4 204.22L56.54 204.17H56.55C89.68 192.57 121.16 181.56 149.29 171.71L149.42 171.67L149.46 171.8C176.97 250.62 195.7 304.28 196.09 305.39Z" fill="#E0E0E0"/>
<path d="M163.2 316.91C163.2 316.91 183.85 299.49 187.43 281.35C187.43 281.35 181.7 290.34 169.77 291.98C169.77 291.98 169.36 311.03 163.2 316.91Z" fill="#E0E0E0"/>
<path d="M92.25 245.41L87.37 247.12C85.59 247.74 83.64 246.81 83.01 245.02L81.3 240.14C80.68 238.36 81.61 236.41 83.4 235.78L88.28 234.07C90.06 233.45 92.01 234.38 92.64 236.17L94.35 241.05C94.97 242.83 94.04 244.79 92.25 245.41Z" fill="#EBEBEB"/>
<path d="M87.69 242.48C87.69 242.48 87.68 242.48 87.69 242.48C87.61 242.51 87.52 242.5 87.46 242.46L85.22 241.16C85.09 241.08 85.04 240.91 85.12 240.78C85.2 240.65 85.37 240.6 85.5 240.68L87.47 241.82L89.83 236.77C89.9 236.63 90.06 236.57 90.2 236.64C90.34 236.71 90.4 236.87 90.33 237.01L87.84 242.34C87.82 242.4 87.76 242.46 87.69 242.48Z" fill="white"/>
<path d="M151.73 213.4C151.76 213.48 139.71 217.76 124.83 222.97C109.94 228.18 97.86 232.35 97.83 232.27C97.8 232.19 109.85 227.91 124.73 222.7C139.62 217.49 151.71 213.33 151.73 213.4Z" fill="#E0E0E0"/>
<path d="M123.45 232.62C123.46 232.64 123.15 232.77 122.58 232.99C121.96 233.22 121.15 233.52 120.16 233.89C118.11 234.63 115.28 235.64 112.15 236.74C109.01 237.84 106.17 238.82 104.11 239.51C103.11 239.84 102.29 240.11 101.66 240.32C101.08 240.5 100.76 240.6 100.75 240.58C100.74 240.56 101.05 240.43 101.62 240.21C102.24 239.98 103.05 239.68 104.04 239.31C106.09 238.57 108.92 237.56 112.06 236.46C115.19 235.36 118.04 234.38 120.1 233.69C121.1 233.36 121.92 233.09 122.55 232.88C123.12 232.69 123.44 232.6 123.45 232.62Z" fill="#E0E0E0"/>
<path d="M153.02 217.08C153.05 217.16 141 221.44 126.12 226.65C111.23 231.86 99.15 236.03 99.12 235.95C99.09 235.87 111.14 231.59 126.02 226.38C140.91 221.17 152.99 217 153.02 217.08Z" fill="#E0E0E0"/>
<path d="M99.22 265.31L94.34 267.02C92.56 267.64 90.61 266.71 89.98 264.92L88.27 260.04C87.65 258.26 88.58 256.31 90.37 255.68L95.25 253.97C97.03 253.35 98.98 254.28 99.61 256.07L101.32 260.95C101.94 262.73 101 264.68 99.22 265.31Z" fill="#EBEBEB"/>
<path d="M94.66 262.38C94.65 262.38 94.65 262.38 94.66 262.38C94.58 262.41 94.49 262.4 94.43 262.36L92.19 261.06C92.06 260.98 92.01 260.81 92.09 260.68C92.17 260.55 92.34 260.5 92.47 260.58L94.44 261.72L96.8 256.67C96.87 256.53 97.03 256.47 97.17 256.53C97.31 256.6 97.37 256.76 97.3 256.9L94.81 262.23C94.79 262.3 94.73 262.35 94.66 262.38Z" fill="white"/>
<path d="M158.7 233.3C158.73 233.38 146.68 237.66 131.8 242.87C116.91 248.08 104.83 252.25 104.8 252.17C104.77 252.09 116.82 247.81 131.7 242.6C146.59 237.39 158.68 233.23 158.7 233.3Z" fill="#E0E0E0"/>
<path d="M130.42 252.52C130.43 252.54 130.12 252.67 129.55 252.89C128.93 253.12 128.12 253.42 127.13 253.79C125.08 254.53 122.25 255.54 119.12 256.64C115.98 257.74 113.14 258.72 111.08 259.41C110.08 259.74 109.26 260.01 108.63 260.22C108.05 260.4 107.73 260.5 107.72 260.48C107.71 260.46 108.02 260.33 108.59 260.11C109.21 259.88 110.02 259.58 111.01 259.21C113.06 258.47 115.89 257.46 119.03 256.36C122.16 255.26 125.01 254.28 127.07 253.59C128.07 253.26 128.89 252.99 129.52 252.78C130.09 252.59 130.41 252.5 130.42 252.52Z" fill="#E0E0E0"/>
<path d="M159.99 236.98C160.02 237.06 147.97 241.34 133.09 246.55C118.2 251.76 106.12 255.93 106.09 255.85C106.06 255.77 118.11 251.49 132.99 246.28C147.87 241.06 159.96 236.9 159.99 236.98Z" fill="#E0E0E0"/>
<path d="M106.19 285.21L101.31 286.92C99.53 287.54 97.58 286.61 96.95 284.82L95.24 279.94C94.62 278.16 95.55 276.21 97.34 275.58L102.22 273.87C104 273.25 105.95 274.18 106.58 275.97L108.29 280.85C108.91 282.63 107.97 284.58 106.19 285.21Z" fill="#EBEBEB"/>
<path d="M101.63 282.279C101.62 282.279 101.62 282.279 101.63 282.279C101.55 282.309 101.46 282.299 101.4 282.259L99.16 280.959C99.03 280.879 98.98 280.709 99.06 280.579C99.14 280.449 99.31 280.399 99.44 280.479L101.41 281.619L103.77 276.569C103.84 276.429 104 276.369 104.14 276.439C104.28 276.509 104.34 276.669 104.27 276.809L101.78 282.139C101.75 282.199 101.7 282.249 101.63 282.279Z" fill="white"/>
<path d="M165.67 253.2C165.7 253.28 153.65 257.56 138.77 262.77C123.88 267.98 111.8 272.15 111.77 272.07C111.74 271.99 123.79 267.71 138.67 262.5C153.56 257.29 165.64 253.13 165.67 253.2Z" fill="#E0E0E0"/>
<path d="M137.39 272.41C137.4 272.43 137.09 272.56 136.52 272.78C135.9 273.01 135.09 273.31 134.1 273.68C132.05 274.42 129.22 275.43 126.09 276.53C122.95 277.63 120.11 278.61 118.05 279.3C117.05 279.63 116.23 279.9 115.6 280.11C115.02 280.29 114.7 280.39 114.69 280.37C114.68 280.35 114.99 280.22 115.56 280C116.18 279.77 116.99 279.47 117.98 279.1C120.03 278.36 122.86 277.35 126 276.25C129.13 275.15 131.98 274.17 134.04 273.48C135.04 273.15 135.86 272.88 136.49 272.67C137.05 272.49 137.38 272.4 137.39 272.41Z" fill="#E0E0E0"/>
<path d="M166.96 256.88C166.99 256.96 154.94 261.24 140.06 266.45C125.17 271.66 113.09 275.83 113.06 275.75C113.03 275.67 125.08 271.39 139.96 266.18C154.84 260.96 166.93 256.8 166.96 256.88Z" fill="#E0E0E0"/>
<path d="M113.16 305.11L108.28 306.82C106.5 307.44 104.55 306.51 103.92 304.72L102.21 299.84C101.59 298.06 102.52 296.11 104.31 295.48L109.19 293.77C110.97 293.15 112.92 294.08 113.55 295.87L115.26 300.75C115.88 302.53 114.94 304.48 113.16 305.11Z" fill="#EBEBEB"/>
<path d="M108.59 302.18C108.51 302.21 108.42 302.2 108.36 302.16L106.12 300.86C105.99 300.78 105.94 300.61 106.02 300.48C106.1 300.35 106.27 300.3 106.4 300.38L108.37 301.52L110.73 296.47C110.8 296.33 110.96 296.27 111.1 296.34C111.24 296.41 111.3 296.57 111.23 296.71L108.74 302.04C108.72 302.1 108.66 302.15 108.59 302.18Z" fill="white"/>
<path d="M172.64 273.1C172.67 273.18 160.62 277.46 145.74 282.67C130.85 287.88 118.77 292.05 118.74 291.97C118.71 291.89 130.76 287.61 145.64 282.4C160.52 277.19 172.61 273.02 172.64 273.1Z" fill="#E0E0E0"/>
<path d="M144.35 292.31C144.36 292.33 144.05 292.46 143.48 292.68C142.86 292.91 142.05 293.21 141.06 293.58C139.01 294.32 136.18 295.33 133.05 296.43C129.91 297.53 127.07 298.51 125.01 299.2C124.01 299.53 123.19 299.8 122.56 300.01C121.98 300.19 121.66 300.29 121.65 300.27C121.64 300.25 121.95 300.12 122.52 299.9C123.14 299.67 123.95 299.37 124.94 299C126.99 298.26 129.82 297.25 132.96 296.15C136.09 295.05 138.94 294.07 141 293.38C142 293.05 142.82 292.78 143.45 292.57C144.02 292.39 144.35 292.29 144.35 292.31Z" fill="#E0E0E0"/>
<path d="M173.93 276.78C173.96 276.86 161.91 281.14 147.03 286.35C132.14 291.56 120.06 295.73 120.03 295.65C120 295.57 132.05 291.29 146.93 286.08C161.81 280.86 173.9 276.7 173.93 276.78Z" fill="#E0E0E0"/>
<path d="M67.09 191.3L69.54 198.29C70.96 202.35 75.4 204.48 79.46 203.06L130.76 185.1C134.82 183.68 136.95 179.24 135.53 175.18L133.09 168.2L67.09 191.3Z" fill="#E0E0E0"/>
<path d="M100.77 181.82C96.97 183.15 92.8 181.14 91.47 177.34C90.14 173.54 92.15 169.37 95.95 168.04C99.75 166.71 103.92 168.72 105.25 172.52C106.57 176.32 104.56 180.49 100.77 181.82ZM96.87 170.69C94.53 171.51 93.29 174.08 94.11 176.42C94.93 178.76 97.5 180 99.84 179.18C102.18 178.36 103.42 175.79 102.6 173.45C101.78 171.11 99.21 169.87 96.87 170.69Z" fill="#E0E0E0"/>
<path d="M141.77 199.96C141.82 200.09 128.29 204.95 111.56 210.81C94.83 216.67 81.23 221.31 81.18 221.18C81.13 221.05 94.66 216.19 111.39 210.33C128.12 204.47 141.72 199.83 141.77 199.96Z" fill="#E0E0E0"/>
<path d="M124.44 202.45C124.49 202.58 118.53 204.79 111.14 207.38C103.75 209.97 97.72 211.96 97.67 211.83C97.62 211.7 103.58 209.49 110.97 206.9C118.37 204.31 124.4 202.32 124.44 202.45Z" fill="#E0E0E0"/>
<path d="M390.95 405.08C394.54 403.23 398.77 402.99 402.76 403.65C404.9 404 407.14 404.64 408.59 406.25C410.05 407.86 410.32 410.69 408.65 412.07C407.65 412.89 406.26 413.02 404.97 413C401.85 412.96 398.39 412.41 395.89 414.29C394.47 415.36 393.52 417.14 391.82 417.67C390.16 418.19 388.28 417.2 387.4 415.7C386.52 414.2 386.49 412.32 386.9 410.63C386.9 410.64 387.33 406.95 390.95 405.08Z" fill="#FF725E"/>
<path d="M382.72 389.2C384.92 392.34 389.18 391.3 391.16 389.38C393.14 387.47 393.98 384.69 394.74 382.04C396.48 375.99 398.23 369.65 396.94 363.49C396.55 361.65 395.86 359.81 394.57 358.45C393.28 357.08 391.29 356.27 389.47 356.75C387.32 357.32 385.98 359.43 385.01 361.43C382.17 367.32 380.66 373.86 380.64 380.4C380.64 383.47 381 386.67 382.72 389.2Z" fill="#FF725E"/>
<path d="M376.69 393.7C379.07 390.87 379.53 386.74 378.47 383.2C377.41 379.65 375.01 376.64 372.25 374.18C369.01 371.29 365.2 369.05 361.11 367.61C359.5 367.04 357.8 366.6 356.1 366.76C354.4 366.92 352.69 367.79 351.9 369.3C350.73 371.54 351.85 374.25 353.07 376.46C355.21 380.36 357.66 384.09 360.39 387.6C362.58 390.43 365.1 393.22 368.44 394.49C371.78 395.77 375.25 395.62 377.03 393.3" fill="#FF725E"/>
<path d="M382.58 436.51C382.62 436.51 382.69 436 382.78 435.08C382.88 434.04 383.01 432.74 383.16 431.19C383.34 429.55 383.58 427.61 384.04 425.48C384.49 423.36 385.2 421.07 386.11 418.75C387.05 416.44 388.2 414.34 389.55 412.66C390.88 410.97 392.44 409.75 393.9 409.05C395.35 408.33 396.66 408.04 397.56 407.91C398.47 407.82 398.98 407.74 398.98 407.7C398.98 407.66 398.47 407.65 397.54 407.68C396.61 407.74 395.26 407.98 393.72 408.67C392.18 409.35 390.53 410.59 389.13 412.32C387.72 414.04 386.53 416.18 385.57 418.54C384.64 420.91 383.94 423.22 383.51 425.38C383.08 427.54 382.88 429.51 382.75 431.16C382.63 432.81 382.58 434.15 382.56 435.07C382.52 436 382.54 436.51 382.58 436.51Z" fill="#263238"/>
<path d="M382.84 433.52C382.86 433.52 382.87 433.29 382.88 432.86C382.88 432.36 382.88 431.74 382.87 430.97C382.87 429.33 382.87 426.95 382.95 424.02C383.1 418.15 383.6 411.84 384.58 402.94C385.5 394.57 386.74 384.83 388.05 378.5C388.33 377.06 388.61 375.76 388.88 374.63C389.13 373.49 389.35 372.51 389.56 371.72C389.74 370.97 389.89 370.36 390 369.88C390.09 369.46 390.14 369.23 390.12 369.23C390.1 369.22 390.02 369.44 389.89 369.85C389.75 370.33 389.56 370.93 389.34 371.66C389.1 372.45 388.85 373.42 388.56 374.55C388.26 375.68 387.95 376.97 387.64 378.41C386.35 384.15 384.97 392.17 383.99 401.09C383.01 410.01 382.57 418.13 382.53 424.01C382.5 426.95 382.56 429.33 382.63 430.97C382.68 431.74 382.72 432.36 382.75 432.86C382.8 433.29 382.82 433.52 382.84 433.52Z" fill="#263238"/>
<path d="M382.88 417.86C382.92 417.86 382.91 417.16 382.87 415.88C382.8 414.61 382.62 412.78 382.27 410.53C381.89 408.29 381.36 405.62 380.53 402.73C380.17 401.41 379.32 398.24 377.27 393.5C374.57 387.08 370.89 381.84 367.69 378.59C366.94 377.73 366.11 377.11 365.44 376.5C365.09 376.21 364.79 375.92 364.48 375.69C364.17 375.47 363.88 375.27 363.61 375.09C362.56 374.37 361.97 373.99 361.95 374.03C361.86 374.16 364.31 375.6 367.4 378.89C370.48 382.18 374.05 387.39 376.74 393.75C378.24 397.2 379.28 400.28 380.02 402.89C380.88 405.76 381.44 408.39 381.87 410.61C382.28 412.84 382.51 414.65 382.66 415.91C382.76 417.16 382.84 417.86 382.88 417.86Z" fill="#263238"/>
<path d="M367.74 445.49L369.31 466.99H396.94L398.51 445.49H367.74Z" fill="#263238"/>
<path d="M401.81 437.01H365.08V445.49H401.81V437.01Z" fill="#263238"/>
<path d="M365.08 466.16V468.51H366.8H401.19V466.16H365.08Z" fill="#455A64"/>
<path d="M368.49 472.65L366.8 468.51H399.88L397.91 472.65H368.49Z" fill="#455A64"/>
<path d="M397.99 452.51C398 452.51 397.95 452.58 397.86 452.71C397.75 452.86 397.61 453.04 397.45 453.26C397.06 453.76 396.52 454.45 395.84 455.32L395.77 455.41L395.7 455.31C394.69 453.91 393.34 452.04 391.75 449.84H391.98C390.8 451.51 389.49 453.36 388.09 455.35L387.97 455.52L387.83 455.36C386.39 453.65 384.83 451.8 383.21 449.87H383.48C383.4 449.97 383.31 450.08 383.23 450.19C381.8 451.98 380.41 453.72 379.1 455.36L378.96 455.53L378.83 455.35C377.43 453.37 376.12 451.51 374.94 449.84L375.17 449.85C373.25 452.04 371.62 453.89 370.37 455.31L370.28 455.41L370.22 455.3C369.59 454.24 369.08 453.39 368.72 452.78C368.56 452.51 368.44 452.28 368.33 452.11C368.25 451.96 368.21 451.87 368.21 451.87C368.22 451.87 368.27 451.94 368.37 452.08C368.48 452.25 368.62 452.46 368.8 452.73C369.18 453.33 369.71 454.16 370.38 455.21L370.23 455.2C371.46 453.76 373.06 451.88 374.95 449.67L375.07 449.53L375.18 449.68C376.37 451.35 377.7 453.19 379.11 455.17L378.85 455.16C380.16 453.51 381.54 451.78 382.97 449.98C383.06 449.87 383.14 449.76 383.22 449.66L383.35 449.5L383.49 449.66C385.11 451.59 386.66 453.45 388.09 455.16L387.83 455.17C389.25 453.19 390.57 451.34 391.76 449.69L391.88 449.53L391.99 449.69C393.55 451.91 394.87 453.8 395.86 455.22H395.72C396.43 454.37 396.99 453.7 397.39 453.21C397.57 453 397.72 452.83 397.84 452.69C397.93 452.57 397.99 452.51 397.99 452.51Z" fill="#E0E0E0"/>
<path d="M398.89 445.34C398.89 445.44 391.97 445.51 383.43 445.51C374.89 445.51 367.97 445.43 367.97 445.34C367.97 445.25 374.89 445.17 383.43 445.17C391.97 445.17 398.89 445.25 398.89 445.34Z" fill="#455A64"/>
<path d="M400.29 468.75C400.29 468.85 392.77 468.92 383.49 468.92C374.21 468.92 366.69 468.84 366.69 468.75C366.69 468.66 374.21 468.58 383.49 468.58C392.76 468.57 400.29 468.65 400.29 468.75Z" fill="#263238"/>
<path d="M127.8 400.15C127.72 400.24 127.09 399.87 126.39 399.3C125.69 398.74 125.18 398.21 125.26 398.11C125.34 398.02 125.97 398.4 126.67 398.96C127.37 399.52 127.87 400.05 127.8 400.15Z" fill="#263238"/>
<path d="M146.95 371.52C147.07 368.84 147.14 366.1 146.3 363.56C145.46 361.02 143.5 358.68 140.87 358.14C137.88 357.52 134.81 359.41 133.13 361.96C131.45 364.51 130.88 367.62 130.38 370.63C126.97 391.41 125.71 412.54 126.63 433.58L138.88 435.3C144.26 413.33 145.98 394.12 146.95 371.52Z" fill="#455A64"/>
<path d="M139.18 358.04C139.19 358.04 139.17 358.11 139.12 358.24C139.07 358.39 139 358.57 138.92 358.8C138.72 359.32 138.45 360.02 138.1 360.92C137.93 361.38 137.7 361.88 137.52 362.45C137.34 363.02 137.14 363.64 136.93 364.3C136.72 364.97 136.49 365.68 136.24 366.43C136.04 367.2 135.83 368.01 135.61 368.86C134.69 372.25 133.92 376.38 133.24 380.98C132.58 385.59 132.14 390.69 131.8 396.05C131.17 406.78 131.08 416.52 130.8 423.56C130.67 427.08 130.55 429.93 130.41 431.9C130.35 432.85 130.29 433.61 130.26 434.16C130.24 434.4 130.22 434.59 130.21 434.75C130.2 434.88 130.19 434.95 130.18 434.95C130.17 434.95 130.17 434.88 130.17 434.75C130.17 434.59 130.17 434.4 130.18 434.16C130.2 433.61 130.22 432.85 130.25 431.89C130.33 429.92 130.41 427.07 130.5 423.55C130.7 416.51 130.75 406.77 131.37 396.02C131.71 390.65 132.16 385.54 132.85 380.92C133.55 376.31 134.35 372.18 135.32 368.78C135.55 367.93 135.77 367.12 135.98 366.35C136.23 365.6 136.48 364.89 136.7 364.22C136.93 363.56 137.14 362.94 137.33 362.37C137.52 361.8 137.76 361.31 137.95 360.85C138.33 359.97 138.63 359.27 138.84 358.76C138.94 358.54 139.02 358.37 139.08 358.22C139.14 358.1 139.17 358.04 139.18 358.04Z" fill="#263238"/>
<path d="M140.31 358.05C140.31 358.05 141.06 358.82 141.81 360.58C142.58 362.33 143.06 365.11 142.93 368.5C142.6 375.27 142 384.59 141.19 394.89C140.38 405.19 139.48 414.49 138.76 421.22C138.4 424.58 138.09 427.3 137.86 429.18C137.74 430.09 137.65 430.81 137.58 431.34C137.55 431.56 137.52 431.75 137.5 431.9C137.48 432.03 137.46 432.09 137.46 432.09C137.45 432.09 137.45 432.02 137.46 431.9C137.47 431.75 137.48 431.56 137.5 431.33C137.55 430.8 137.61 430.07 137.7 429.16C137.88 427.24 138.15 424.52 138.47 421.18C139.11 414.45 139.96 405.14 140.77 394.84C141.57 384.55 142.23 375.22 142.63 368.48C142.8 365.11 142.38 362.38 141.66 360.63C140.96 358.89 140.26 358.08 140.31 358.05Z" fill="#263238"/>
<path d="M148.8 389.74C148.76 389.85 147.72 389.59 146.48 389.14C145.24 388.69 144.27 388.24 144.31 388.13C144.35 388.02 145.39 388.28 146.63 388.73C147.87 389.17 148.84 389.63 148.8 389.74Z" fill="#263238"/>
<path d="M150.28 377.26C150.33 377.37 149.34 377.92 148.07 378.49C146.8 379.06 145.73 379.43 145.68 379.32C145.63 379.21 146.62 378.66 147.89 378.09C149.16 377.52 150.23 377.15 150.28 377.26Z" fill="#263238"/>
<path d="M149.51 367.07C149.5 367.19 148.68 367.23 147.68 367.16C146.68 367.09 145.88 366.94 145.88 366.82C145.89 366.7 146.71 366.66 147.71 366.73C148.71 366.8 149.52 366.95 149.51 367.07Z" fill="#263238"/>
<path d="M136.87 360.55C136.77 360.61 136.23 359.95 135.67 359.06C135.11 358.17 134.74 357.4 134.84 357.33C134.94 357.27 135.48 357.93 136.04 358.82C136.61 359.71 136.98 360.48 136.87 360.55Z" fill="#263238"/>
<path d="M132.7 366.71C132.7 366.83 131.92 366.91 130.96 366.89C130 366.87 129.23 366.76 129.23 366.63C129.23 366.51 130.01 366.43 130.97 366.45C131.93 366.47 132.7 366.59 132.7 366.71Z" fill="#263238"/>
<path d="M129.7 379.03C129.65 379.14 128.84 378.92 127.87 378.53C126.9 378.14 126.16 377.73 126.2 377.62C126.25 377.51 127.06 377.73 128.03 378.12C129 378.51 129.74 378.92 129.7 379.03Z" fill="#263238"/>
<path d="M129.38 389.39C129.4 389.51 128.71 389.75 127.82 389.94C126.93 390.13 126.2 390.18 126.17 390.06C126.15 389.94 126.84 389.7 127.73 389.51C128.62 389.33 129.35 389.28 129.38 389.39Z" fill="#263238"/>
<path d="M127.97 406.35C127.99 406.47 127.25 406.7 126.32 406.87C125.38 407.04 124.61 407.08 124.59 406.96C124.57 406.84 125.31 406.61 126.24 406.44C127.17 406.27 127.95 406.23 127.97 406.35Z" fill="#263238"/>
<path d="M127.03 415.71C127.09 415.82 126.47 416.25 125.65 416.69C124.83 417.12 124.12 417.39 124.07 417.28C124.01 417.17 124.63 416.74 125.45 416.3C126.27 415.86 126.97 415.6 127.03 415.71Z" fill="#263238"/>
<path d="M134.67 426.33C134.57 426.39 134.03 425.65 133.47 424.67C132.91 423.69 132.54 422.85 132.65 422.79C132.75 422.73 133.29 423.47 133.85 424.45C134.41 425.43 134.78 426.27 134.67 426.33Z" fill="#263238"/>
<path d="M136.88 408.68C136.96 408.77 136.37 409.49 135.54 410.3C134.72 411.11 133.98 411.69 133.89 411.61C133.81 411.52 134.4 410.8 135.23 409.99C136.06 409.18 136.79 408.59 136.88 408.68Z" fill="#263238"/>
<path d="M136.39 399.41C136.3 399.49 135.75 399.04 135.15 398.39C134.55 397.75 134.14 397.16 134.23 397.07C134.32 396.99 134.87 397.44 135.47 398.09C136.07 398.74 136.48 399.33 136.39 399.41Z" fill="#263238"/>
<path d="M137.91 387.58C138 387.66 137.5 388.37 136.79 389.15C136.08 389.94 135.44 390.51 135.35 390.43C135.26 390.35 135.76 389.64 136.47 388.86C137.17 388.07 137.82 387.5 137.91 387.58Z" fill="#263238"/>
<path d="M138.76 378.99C138.68 379.08 137.98 378.53 137.2 377.77C136.42 377.01 135.86 376.32 135.95 376.23C136.03 376.14 136.73 376.69 137.51 377.45C138.28 378.22 138.84 378.91 138.76 378.99Z" fill="#263238"/>
<path d="M140.44 367.38C140.54 367.44 140.19 368.22 139.66 369.12C139.12 370.02 138.61 370.7 138.5 370.63C138.4 370.57 138.75 369.79 139.28 368.89C139.81 368 140.33 367.32 140.44 367.38Z" fill="#263238"/>
<path d="M143.59 356.62C143.7 356.68 143.39 357.46 142.9 358.36C142.41 359.26 141.93 359.95 141.82 359.89C141.71 359.83 142.02 359.05 142.51 358.15C143 357.25 143.48 356.57 143.59 356.62Z" fill="#263238"/>
<path d="M147.17 361.51C147.22 361.62 146.73 361.96 146.08 362.28C145.42 362.59 144.85 362.76 144.8 362.65C144.75 362.54 145.24 362.2 145.89 361.88C146.54 361.57 147.12 361.4 147.17 361.51Z" fill="#263238"/>
<path d="M147.25 400.15C147.23 400.26 146.12 400.11 144.85 399.57C143.59 399.03 142.71 398.34 142.77 398.24C142.84 398.13 143.8 398.65 145.02 399.17C146.25 399.69 147.28 400.03 147.25 400.15Z" fill="#263238"/>
<path d="M145.79 408.33C145.81 408.45 145.08 408.69 144.14 408.87C143.21 409.05 142.43 409.1 142.41 408.98C142.39 408.86 143.12 408.62 144.06 408.44C144.99 408.26 145.77 408.21 145.79 408.33Z" fill="#263238"/>
<path d="M143.99 422.36C143.92 422.45 142.98 421.81 142.13 420.72C141.27 419.64 140.86 418.58 140.96 418.53C141.07 418.47 141.64 419.4 142.47 420.45C143.3 421.5 144.08 422.27 143.99 422.36Z" fill="#263238"/>
<path d="M124.31 428.78C124.23 428.69 124.73 428.13 125.42 427.54C126.11 426.95 126.74 426.54 126.82 426.63C126.9 426.72 126.4 427.28 125.71 427.87C125.01 428.47 124.39 428.87 124.31 428.78Z" fill="#263238"/>
<path d="M118.65 398.16C117.85 395.67 116.36 392.77 113.74 392.73C112.19 392.71 110.79 393.82 110.07 395.19C109.34 396.56 109.03 398.15 109.08 399.7C109.38 409.94 111.15 421.65 114.7 432.32H124.26C124.13 420.46 122.26 409.44 118.65 398.16Z" fill="#455A64"/>
<path d="M101.36 382.49C100.02 377.14 96.04 374.26 91.41 373.99C87.18 374.73 85.54 378.89 85.04 383.15C84.54 387.41 85.86 391.65 87.17 395.74C91.37 408.86 95.56 421.98 99.76 435.11C103.72 434.68 107.69 434.24 111.65 433.81C107.88 416.23 105.72 399.93 101.36 382.49Z" fill="#455A64"/>
<path d="M113.75 392.73C113.79 392.76 113.36 393.16 112.94 394.08C112.53 395.01 112.33 396.49 112.49 398.31C112.68 400.13 112.88 402.32 113.19 404.71C113.5 407.11 113.93 409.74 114.47 412.49C115.55 417.98 116.77 422.91 117.54 426.5C117.93 428.3 118.23 429.75 118.41 430.76C118.49 431.22 118.56 431.61 118.61 431.93C118.65 432.2 118.67 432.34 118.65 432.34C118.63 432.34 118.59 432.21 118.52 431.95C118.44 431.64 118.35 431.26 118.24 430.8C117.99 429.73 117.65 428.31 117.23 426.57C116.38 423 115.11 418.08 114.03 412.57C113.49 409.82 113.07 407.17 112.78 404.76C112.63 403.55 112.53 402.4 112.43 401.32C112.34 400.25 112.23 399.25 112.17 398.32C112.04 396.48 112.29 394.94 112.77 394C113.26 393.08 113.75 392.73 113.75 392.73Z" fill="#263238"/>
<path d="M91.58 373.65C91.62 373.69 90.95 374.25 90.14 375.58C89.34 376.89 88.49 379.03 88.33 381.8C88.15 384.57 88.77 387.85 89.8 391.38C90.84 394.92 91.99 398.8 93.19 402.88C95.56 411.03 97.71 418.41 99.28 423.81C100.03 426.46 100.64 428.62 101.08 430.17C101.27 430.89 101.43 431.47 101.55 431.9C101.65 432.3 101.7 432.51 101.68 432.51C101.67 432.51 101.59 432.31 101.46 431.92C101.32 431.49 101.14 430.92 100.91 430.21C100.44 428.67 99.78 426.53 98.98 423.89C97.38 418.5 95.19 411.14 92.77 403C91.58 398.92 90.44 395.03 89.41 391.48C88.39 387.94 87.79 384.59 88.02 381.77C88.22 378.95 89.13 376.78 89.99 375.48C90.86 374.17 91.58 373.65 91.58 373.65Z" fill="#263238"/>
<path d="M109.05 432.54C109.04 432.55 108.94 432.35 108.78 431.97C108.62 431.59 108.37 431.03 108.1 430.3C107.53 428.84 106.81 426.69 106.05 423.98C105.29 421.28 104.55 418.02 103.83 414.39C103.14 410.75 102.38 406.75 101.59 402.56C100.76 398.37 99.84 394.41 98.77 390.87C97.7 387.33 96.51 384.22 95.3 381.7C94.1 379.18 92.95 377.23 92.09 375.92C91.68 375.25 91.31 374.77 91.09 374.42C90.86 374.08 90.75 373.89 90.76 373.88C90.77 373.87 90.91 374.04 91.16 374.36C91.4 374.69 91.8 375.16 92.23 375.81C93.14 377.09 94.33 379.03 95.57 381.55C96.82 384.07 98.05 387.18 99.14 390.73C100.24 394.28 101.17 398.25 102 402.45C102.78 406.65 103.53 410.65 104.21 414.29C104.91 417.92 105.61 421.18 106.33 423.88C107.04 426.58 107.72 428.74 108.24 430.22C108.48 430.96 108.71 431.53 108.84 431.92C109 432.32 109.07 432.53 109.05 432.54Z" fill="#263238"/>
<path d="M87.38 393.78C87.41 393.9 86.76 394.16 85.93 394.36C85.1 394.56 84.41 394.63 84.38 394.51C84.35 394.39 85 394.13 85.83 393.93C86.66 393.73 87.35 393.66 87.38 393.78Z" fill="#263238"/>
<path d="M86.12 385.66C86.11 385.78 85.21 385.83 84.11 385.88C83.01 385.92 82.11 385.94 82.09 385.82C82.07 385.7 82.97 385.48 84.09 385.44C85.22 385.39 86.13 385.54 86.12 385.66Z" fill="#263238"/>
<path d="M87.46 378.24C87.38 378.33 86.74 377.91 86.02 377.3C85.3 376.69 84.78 376.12 84.86 376.03C84.94 375.94 85.58 376.36 86.3 376.97C87.02 377.58 87.54 378.15 87.46 378.24Z" fill="#263238"/>
<path d="M91.09 371.38C91.21 371.41 91.18 371.99 91.16 372.68C91.14 373.38 91.14 373.96 91.02 373.98C90.9 374 90.7 373.42 90.73 372.67C90.74 371.92 90.97 371.35 91.09 371.38Z" fill="#263238"/>
<path d="M98.5 374.61C98.6 374.68 98.31 375.27 97.85 375.92C97.39 376.57 96.94 377.05 96.84 376.98C96.74 376.91 97.03 376.32 97.49 375.67C97.95 375.02 98.4 374.54 98.5 374.61Z" fill="#263238"/>
<path d="M103.31 382.97C103.36 383.08 102.74 383.44 101.93 383.77C101.12 384.1 100.43 384.27 100.39 384.16C100.34 384.05 100.96 383.69 101.77 383.36C102.58 383.04 103.27 382.86 103.31 382.97Z" fill="#263238"/>
<path d="M106.23 391.57C106.28 391.68 105.46 392.14 104.34 392.39C103.22 392.65 102.29 392.58 102.28 392.46C102.27 392.34 103.17 392.21 104.24 391.96C105.32 391.73 106.18 391.46 106.23 391.57Z" fill="#263238"/>
<path d="M92.83 389.13C92.71 389.09 92.8 388.5 93.02 387.8C93.24 387.1 93.51 386.57 93.62 386.6C93.74 386.64 93.65 387.23 93.43 387.93C93.22 388.63 92.95 389.17 92.83 389.13Z" fill="#263238"/>
<path d="M94.7 399.93C94.59 399.88 94.83 399.08 95.24 398.14C95.65 397.2 96.07 396.48 96.18 396.53C96.29 396.58 96.05 397.38 95.64 398.32C95.23 399.26 94.81 399.98 94.7 399.93Z" fill="#263238"/>
<path d="M90.08 402.89C90.03 403 89.28 402.8 88.37 402.51C87.46 402.22 86.72 401.96 86.75 401.84C86.77 401.72 87.57 401.8 88.5 402.09C89.43 402.38 90.13 402.78 90.08 402.89Z" fill="#263238"/>
<path d="M92.74 411.69C92.81 411.79 92.3 412.27 91.6 412.77C90.9 413.27 90.28 413.59 90.21 413.49C90.14 413.39 90.65 412.91 91.35 412.41C92.05 411.92 92.67 411.59 92.74 411.69Z" fill="#263238"/>
<path d="M94.88 420.47C94.91 420.59 94.28 420.84 93.47 421.04C92.66 421.24 91.99 421.3 91.96 421.18C91.93 421.06 92.56 420.81 93.37 420.61C94.17 420.41 94.85 420.35 94.88 420.47Z" fill="#263238"/>
<path d="M106.47 398.91C106.53 399.01 105.99 399.44 105.21 399.74C104.43 400.04 103.74 400.07 103.72 399.95C103.7 399.83 104.31 399.61 105.06 399.33C105.8 399.04 106.41 398.8 106.47 398.91Z" fill="#263238"/>
<path d="M108.12 412.56C108.07 412.67 107.43 412.48 106.69 412.13C105.95 411.78 105.39 411.41 105.44 411.3C105.49 411.19 106.13 411.38 106.87 411.73C107.62 412.08 108.18 412.45 108.12 412.56Z" fill="#263238"/>
<path d="M111.05 422.34C111.01 422.45 110.16 422.23 109.16 421.83C108.16 421.44 107.38 421.03 107.43 420.92C107.47 420.81 108.32 421.03 109.32 421.43C110.31 421.81 111.09 422.22 111.05 422.34Z" fill="#263238"/>
<path d="M95.35 429.99C95.29 429.88 96.07 429.36 96.97 428.64C97.87 427.93 98.57 427.3 98.66 427.38C98.75 427.46 98.18 428.25 97.24 428.98C96.3 429.73 95.4 430.1 95.35 429.99Z" fill="#263238"/>
<path d="M103.07 425.02C102.95 425.03 102.78 424.38 102.48 423.62C102.19 422.85 101.87 422.26 101.97 422.18C102.06 422.11 102.57 422.63 102.89 423.46C103.21 424.28 103.19 425.01 103.07 425.02Z" fill="#263238"/>
<path d="M101.03 413.27C100.96 413.37 100.46 413.13 99.92 412.74C99.37 412.35 98.99 411.95 99.06 411.85C99.13 411.75 99.63 411.99 100.17 412.38C100.71 412.77 101.1 413.17 101.03 413.27Z" fill="#263238"/>
<path d="M119.04 394.85C119.11 394.95 118.63 395.43 117.95 395.92C117.28 396.42 116.68 396.74 116.6 396.64C116.53 396.54 117.01 396.06 117.69 395.57C118.36 395.08 118.97 394.75 119.04 394.85Z" fill="#263238"/>
<path d="M121.75 402.27C121.76 402.39 121 402.55 120.06 402.44C119.12 402.34 118.41 402.02 118.44 401.91C118.48 401.79 119.21 401.91 120.1 402.01C121 402.11 121.74 402.15 121.75 402.27Z" fill="#263238"/>
<path d="M110.08 403.94C110.11 404.06 109.4 404.31 108.49 404.37C107.58 404.43 106.85 404.28 106.86 404.16C106.87 404.04 107.59 404 108.46 403.94C109.34 403.87 110.06 403.82 110.08 403.94Z" fill="#263238"/>
<path d="M111.09 396.92C111.08 397.04 110.37 397.05 109.59 396.69C108.81 396.33 108.36 395.78 108.44 395.7C108.52 395.61 109.06 395.97 109.77 396.29C110.48 396.63 111.1 396.8 111.09 396.92Z" fill="#263238"/>
<path d="M122.75 410.24C122.69 410.34 121.96 410 121.12 409.47C120.28 408.94 119.66 408.44 119.72 408.33C119.78 408.23 120.51 408.57 121.35 409.1C122.19 409.63 122.82 410.14 122.75 410.24Z" fill="#263238"/>
<path d="M151.22 431.06H88.97V442.09H151.22V431.06Z" fill="#FF725E"/>
<path d="M93.62 439.91L101.19 472.88H138.29L146.58 439.91H93.62Z" fill="#FF725E"/>
<path d="M151.19 442.11C151.19 442.23 137.15 442.33 119.83 442.33C102.51 442.33 88.47 442.23 88.47 442.11C88.47 441.99 102.51 441.89 119.83 441.89C137.15 441.89 151.19 441.99 151.19 442.11Z" fill="#263238"/>
<path d="M116.57 404.18C116.47 404.24 116.04 403.75 115.62 403.07C115.2 402.39 114.94 401.79 115.04 401.73C115.14 401.67 115.57 402.16 115.99 402.84C116.41 403.51 116.67 404.11 116.57 404.18Z" fill="#263238"/>
<path d="M116.59 413.05C116.48 413.01 116.62 412.26 116.92 411.37C117.21 410.48 117.55 409.79 117.66 409.83C117.77 409.87 117.63 410.62 117.33 411.51C117.04 412.4 116.71 413.09 116.59 413.05Z" fill="#263238"/>
<path d="M119.63 422.37C119.52 422.42 119.06 421.68 118.59 420.71C118.13 419.74 117.84 418.91 117.95 418.86C118.06 418.81 118.52 419.55 118.99 420.52C119.45 421.49 119.74 422.32 119.63 422.37Z" fill="#263238"/>
<path d="M113.06 429.87C112.97 429.79 113.34 429.21 113.89 428.58C114.44 427.95 114.96 427.5 115.05 427.58C115.14 427.66 114.77 428.24 114.22 428.87C113.67 429.5 113.15 429.95 113.06 429.87Z" fill="#263238"/>
<path d="M111.68 416.26C111.66 416.38 111.06 416.37 110.34 416.25C109.62 416.12 109.06 415.92 109.08 415.81C109.1 415.69 109.7 415.7 110.42 415.82C111.13 415.94 111.7 416.14 111.68 416.26Z" fill="#263238"/>
<path d="M328.25 355.24H180.63V472.96H328.25V355.24Z" fill="#E0E0E0"/>
<g opacity="0.3">
<g opacity="0.3">
<path opacity="0.3" d="M191.38 355.48C208.76 361.68 227.93 363 246.58 363.35C250.44 363.42 254.35 363.42 258.09 364.39C261.83 365.36 265.45 367.46 267.37 370.81C269.46 374.46 269.24 379.03 268.05 383.06C266.86 387.09 264.81 390.81 263.32 394.75C260.71 401.65 259.9 409.23 260.99 416.52C261.45 419.62 262.28 422.74 264.07 425.32C265.86 427.89 268.75 429.85 271.89 429.9C277.5 429.98 281.34 424.47 284.12 419.59C295.53 399.6 307.87 376.88 315.17 355.06L191.38 355.48Z" fill="black"/>
</g>
</g>
<path d="M230.93 472.33C230.79 472.33 230.67 446.24 230.67 414.06C230.67 381.87 230.79 355.78 230.93 355.78C231.07 355.78 231.19 381.87 231.19 414.06C231.19 446.24 231.07 472.33 230.93 472.33Z" fill="#455A64"/>
<path d="M291.42 268.24C290.98 265.31 282.21 255.6 282.21 255.6C282.21 255.6 277.82 237.99 276.51 232.8C276.18 231.5 275.48 230.03 274.6 228.55C271.54 223.36 267.05 219.15 261.79 216.19L249.65 209.36L246.74 202.9L217.57 187.91L209.66 201.86C209.66 201.86 190.45 207.97 187.91 212.33C185.37 216.69 189.17 275.13 189.17 275.13C189.17 275.13 181.13 308.85 179.43 315.83C177.74 322.81 179.98 331.13 179.98 331.13L194.29 313.17C198.74 307.59 208.5 305.03 215.51 305.13L275.42 305.39L273.04 288.61L321.48 298.03C321.48 298.03 329.82 281.78 330.47 281.45C331.12 281.13 291.42 268.24 291.42 268.24Z" fill="#FF725E"/>
<path d="M216.32 207.35C215.9 206.92 219.71 219.78 224.48 232.87C227.05 239.92 228.34 247.4 228.34 254.94V283.76V302.34L257.07 300.39L252.78 269.17C252.78 269.17 249.28 249.03 248.3 241.37C247.4 234.36 244.32 215.34 244.32 215.34C244.32 215.34 228.35 219.6 216.32 207.35Z" fill="white"/>
<path d="M280.06 280.02C280.03 280.02 280.02 279.76 280.06 279.3C280.1 278.84 280.21 278.17 280.44 277.37C280.88 275.77 281.91 273.62 283.72 271.8C285.54 269.98 287.69 268.95 289.29 268.5C290.09 268.27 290.76 268.16 291.22 268.12C291.68 268.08 291.94 268.09 291.94 268.12C291.95 268.21 290.93 268.32 289.4 268.85C287.87 269.37 285.83 270.41 284.09 272.16C282.35 273.91 281.31 275.95 280.79 277.48C280.26 279.01 280.15 280.03 280.06 280.02Z" fill="#263238"/>
<path d="M281.54 268.64C281.48 268.53 283.36 267.57 285.93 267.37C288.49 267.15 290.51 267.78 290.46 267.91C290.43 268.07 288.43 267.68 285.97 267.89C283.5 268.08 281.6 268.79 281.54 268.64Z" fill="#263238"/>
<g opacity="0.3">
<g opacity="0.3">
<path opacity="0.3" d="M186.27 294.51L183.78 297.34C186.45 300.45 189.92 303.05 193.9 304.03C197.88 305.01 202.01 305.12 206.11 305.14C207.77 305.14 209.45 305.13 211.05 304.67C212.67 304.2 214.19 303.28 215.88 303.18C217.01 303.11 218.12 303.42 219.23 303.66C220.34 303.9 221.51 304.06 222.59 303.71C223.67 303.36 224.61 302.36 224.54 301.23C212.08 297.59 199.22 295.33 186.27 294.51Z" fill="black"/>
</g>
</g>
<path d="M268.27 298.13L261.22 290.64L246.72 286.97C246.72 286.97 233.43 290.95 233.12 290.94C232.8 290.93 221.56 287.87 221.56 287.87L217.63 302.28L237.88 303.67L261 302.74C261 302.74 262.21 301.62 261.49 300.85C260.78 300.08 265.36 302.15 265.9 302.17C266.43 302.19 267.49 302.61 268.2 301.75C268.69 301.17 269.35 299.28 268.27 298.13Z" fill="#FFBE9D"/>
<path d="M261.49 300.86C261.46 300.93 260.59 300.65 259.19 300.2C257.78 299.75 255.84 299.16 253.67 298.6C251.49 298.04 249.5 297.63 248.06 297.34C246.61 297.05 245.72 296.87 245.73 296.8C245.74 296.73 246.66 296.78 248.12 296.98C249.59 297.18 251.61 297.54 253.8 298.1C255.99 298.66 257.94 299.32 259.32 299.86C260.69 300.39 261.52 300.8 261.49 300.86Z" fill="#EB996E"/>
<path d="M268.27 298.13C268.24 298.2 267.03 297.75 265.05 297.09C263.08 296.42 260.32 295.61 257.25 294.75C254.19 293.84 251.46 292.93 249.39 292.81C247.33 292.64 246.07 293.04 246.05 292.94C246.04 292.91 246.34 292.79 246.92 292.65C247.49 292.51 248.35 292.41 249.41 292.44C251.55 292.47 254.36 293.35 257.39 294.25C260.46 295.11 263.22 295.98 265.17 296.74C266.15 297.11 266.93 297.45 267.46 297.69C268 297.94 268.28 298.1 268.27 298.13Z" fill="#EB996E"/>
<path d="M187.9 212.33C187.9 212.33 177.45 219.6 174.91 230.06C172.37 240.53 161.35 283.26 163.61 289.66C165.87 296.06 209.82 302.33 209.82 302.33L215.03 280.36L192.71 274.25C192.71 274.25 192.99 253.9 193.28 245.47C193.57 237.04 187.9 212.33 187.9 212.33Z" fill="#FF725E"/>
<path d="M214.73 283.64L221.92 285.41L217.59 301.99L210.53 300.86L214.73 283.64Z" fill="white"/>
<path d="M163.44 287.4C163.48 287.4 163.42 287.77 163.55 288.44C163.69 289.1 164.12 290.06 165.08 290.93C166.99 292.71 170.64 294.19 175.26 295.02H175.28L175.3 295.03C177.41 295.72 179.82 296.28 182.4 296.86C184.98 297.44 187.75 298.03 190.67 298.62C196.52 299.82 202.99 301.07 209.84 302.36L209.54 302.55C210.04 300.51 210.56 298.36 211.09 296.17C212.32 291.13 213.52 286.24 214.65 281.61L214.83 281.91C207.45 279.8 200.71 277.88 195 276.25H194.99H194.98C191.95 275.01 188.94 274.56 186.33 274.73C183.71 274.85 181.51 275.55 179.8 276.26C178.09 276.99 176.87 277.79 176.05 278.34C175.67 278.62 175.37 278.83 175.14 279C174.93 279.15 174.82 279.22 174.82 279.21C174.81 279.2 174.91 279.11 175.1 278.95C175.3 278.79 175.58 278.54 175.98 278.24C176.78 277.66 177.99 276.82 179.71 276.05C181.42 275.3 183.64 274.55 186.31 274.4C188.96 274.19 192.04 274.62 195.14 275.86L195.12 275.85C200.85 277.46 207.59 279.35 214.98 281.42L215.21 281.49L215.15 281.73C214.02 286.36 212.83 291.25 211.61 296.29C211.08 298.47 210.55 300.63 210.05 302.67L209.99 302.91L209.75 302.86C202.89 301.57 196.42 300.29 190.58 299.07C187.66 298.46 184.89 297.85 182.31 297.26C179.73 296.66 177.34 296.09 175.19 295.36L175.22 295.37C170.54 294.48 166.89 292.94 164.96 291.07C163.99 290.15 163.58 289.14 163.46 288.45C163.35 287.76 163.44 287.4 163.44 287.4Z" fill="#263238"/>
<path d="M193.91 275.71C193.85 275.78 193.1 275.09 191.76 274.19C190.42 273.29 188.44 272.23 186.09 271.54C183.73 270.86 181.49 270.69 179.88 270.73C178.27 270.77 177.27 270.94 177.26 270.86C177.25 270.81 178.22 270.5 179.87 270.37C181.51 270.23 183.82 270.35 186.24 271.05C188.66 271.76 190.67 272.9 191.98 273.9C193.29 274.89 193.95 275.67 193.91 275.71Z" fill="#263238"/>
<path d="M196.84 239.91C196.88 239.91 196.88 240.39 196.85 241.25C196.83 242.11 196.76 243.36 196.64 244.89C196.39 247.96 195.94 252.2 195.13 256.83C194.34 261.47 193.33 265.62 192.36 268.55C192.11 269.28 191.86 269.94 191.65 270.51C191.41 271.05 191.2 271.53 191.01 271.95C190.6 272.71 190.36 273.12 190.33 273.11C190.3 273.09 190.48 272.65 190.83 271.87C190.99 271.44 191.18 270.95 191.38 270.41C191.57 269.83 191.79 269.18 192.01 268.44C192.89 265.5 193.83 261.36 194.62 256.74C195.42 252.12 195.93 247.91 196.27 244.85C196.42 243.4 196.55 242.19 196.65 241.23C196.73 240.38 196.8 239.91 196.84 239.91Z" fill="#263238"/>
<path d="M222.32 228.58C222.29 228.59 222.22 228.31 221.97 227.84C221.72 227.38 221.28 226.73 220.47 226.2C219.68 225.68 218.47 225.3 217.22 225.72C215.99 226.12 214.78 227.27 214.48 228.83L214.34 229.54L214.03 228.88C212.98 226.61 211.9 224 210.97 221.16C209.28 216.01 208.55 211.08 208.71 207.52C208.71 206.63 208.83 205.83 208.89 205.13C209.01 204.43 209.1 203.83 209.21 203.35C209.46 202.39 209.62 201.86 209.65 201.87C209.78 201.89 209.06 204 209.08 207.53C209.02 211.04 209.79 215.9 211.47 221C212.39 223.81 213.44 226.42 214.46 228.68L214.01 228.73C214.38 226.98 215.74 225.75 217.1 225.34C218.5 224.91 219.82 225.36 220.63 225.96C221.47 226.56 221.9 227.28 222.11 227.77C222.21 228.02 222.28 228.22 222.3 228.36C222.33 228.5 222.34 228.57 222.32 228.58Z" fill="#263238"/>
<path d="M246.7 230.83C246.67 230.83 246.6 230.41 246.47 229.64C246.36 228.87 246.11 227.74 246.26 226.29C246.46 224.87 247.13 223.14 248.67 221.86C249.43 221.23 250.47 220.81 251.58 220.82C252.67 220.82 253.86 221.24 254.64 222.19L254.2 222.44C253.9 221.67 253.58 220.87 253.25 220.05C251.38 215.34 249.72 211.06 248.55 207.96C248 206.48 247.54 205.24 247.18 204.28C246.87 203.41 246.71 202.92 246.74 202.9C246.77 202.89 246.99 203.35 247.37 204.2C247.77 205.15 248.28 206.37 248.89 207.83C250.16 210.9 251.87 215.15 253.74 219.87C254.06 220.69 254.38 221.49 254.68 222.26L255.29 223.8L254.24 222.51C253.59 221.71 252.55 221.32 251.58 221.31C250.59 221.3 249.67 221.65 248.96 222.22C247.53 223.36 246.83 225.01 246.61 226.34C246.42 227.71 246.62 228.85 246.67 229.62C246.73 230.4 246.74 230.83 246.7 230.83Z" fill="#263238"/>
<path d="M265.25 233.31C265.39 233.29 267.65 248.49 270.3 267.26C272.95 286.04 274.97 301.27 274.83 301.29C274.69 301.31 272.43 286.11 269.78 267.33C267.14 248.57 265.11 233.33 265.25 233.31Z" fill="#263238"/>
<g opacity="0.3">
<g opacity="0.3">
<path opacity="0.3" d="M211.28 221.32C211.4 225.2 212.25 229.06 213.77 232.61C214.86 231.27 216.07 229.84 217.72 229.45C219.79 228.96 221.87 230.23 223.37 231.78C223.05 230.23 222.53 228.69 221.57 227.47C220.61 226.24 219.14 225.36 217.61 225.4C216.07 225.44 214.55 226.57 214.27 228.12L211.4 221.39" fill="black"/>
</g>
</g>
<path d="M194.39 232.31C194.29 232.31 194.33 231.26 194.02 229.63C193.72 228 192.99 225.79 191.59 223.68C190.88 222.63 190.09 221.73 189.3 220.96C188.49 220.22 187.72 219.61 187.01 219.18C185.61 218.29 184.62 217.95 184.65 217.86C184.66 217.83 184.91 217.89 185.37 218.04C185.6 218.11 185.87 218.21 186.18 218.35C186.49 218.49 186.84 218.64 187.21 218.86C187.96 219.26 188.79 219.87 189.64 220.61C190.47 221.38 191.3 222.31 192.03 223.39C193.48 225.57 194.18 227.88 194.39 229.57C194.5 230.41 194.53 231.1 194.49 231.58C194.46 232.05 194.43 232.31 194.39 232.31Z" fill="#263238"/>
<path d="M252.44 160.95C251.26 149.85 241.74 141.52 230.58 141.81L229.47 141.84C217.53 142.85 211.71 153.55 213.05 165.46L216.33 207.35L217.72 209.05C224.14 216.93 235.06 219.51 244.33 215.32L243.41 201.84C243.41 201.84 254.86 199.76 254.71 188.26C254.62 182.7 253.54 171.28 252.44 160.95Z" fill="#FFBE9D"/>
<path d="M243.48 201.83C243.48 201.83 236.15 202.46 228.3 197.81C228.3 197.81 232.06 205.99 243.5 204.66L243.48 201.83Z" fill="#EB996E"/>
<path d="M248.8 170.46C248.85 171.33 248.16 172.09 247.26 172.16C246.36 172.23 245.58 171.59 245.53 170.72C245.48 169.85 246.17 169.09 247.07 169.02C247.97 168.95 248.75 169.59 248.8 170.46Z" fill="#263238"/>
<path d="M249.53 164.21C249.4 164.41 248.1 164.55 246.54 165.39C244.98 166.22 244.05 167.28 243.83 167.26C243.73 167.26 243.82 166.97 244.22 166.5C244.62 166.04 245.36 165.39 246.33 164.87C247.3 164.35 248.21 164.11 248.77 164.06C249.35 164.01 249.6 164.11 249.53 164.21Z" fill="#263238"/>
<path d="M232.2 171.33C232.25 172.2 231.56 172.96 230.66 173.03C229.76 173.1 228.98 172.46 228.93 171.59C228.88 170.72 229.57 169.96 230.47 169.89C231.37 169.82 232.15 170.46 232.2 171.33Z" fill="#263238"/>
<path d="M231.95 166.62C231.72 166.67 230.65 165.95 228.94 165.52C227.23 165.09 225.84 165.2 225.68 165.05C225.6 164.98 225.86 164.85 226.47 164.8C227.07 164.74 228.05 164.79 229.12 165.05C230.19 165.32 231.02 165.73 231.48 166.05C231.94 166.38 232.06 166.6 231.95 166.62Z" fill="#263238"/>
<path d="M238.88 180.35C238.87 180.25 239.96 180.03 241.74 179.76C242.19 179.7 242.61 179.6 242.68 179.29C242.78 178.96 242.58 178.48 242.34 177.96C241.89 176.88 241.41 175.75 240.92 174.56C238.94 169.72 237.5 165.73 237.69 165.65C237.89 165.57 239.65 169.43 241.63 174.28C242.11 175.47 242.56 176.61 243 177.7C243.18 178.21 243.49 178.78 243.28 179.46C243.17 179.8 242.84 180.05 242.56 180.14C242.27 180.24 242.02 180.25 241.8 180.27C240 180.42 238.89 180.45 238.88 180.35Z" fill="#263238"/>
<path d="M231.98 159.8C231.78 160.27 230.03 159.96 227.95 160.11C225.86 160.22 224.16 160.74 223.91 160.3C223.8 160.09 224.11 159.65 224.81 159.22C225.5 158.79 226.59 158.4 227.84 158.32C229.09 158.24 230.22 158.5 230.96 158.84C231.7 159.18 232.06 159.57 231.98 159.8Z" fill="#263238"/>
<path d="M249.49 160.19C249.11 160.6 247.58 160.19 245.76 160.19C243.93 160.14 242.39 160.49 242.03 160.08C241.87 159.88 242.11 159.47 242.78 159.09C243.44 158.7 244.55 158.38 245.81 158.4C247.06 158.42 248.16 158.77 248.79 159.18C249.44 159.58 249.66 159.99 249.49 160.19Z" fill="#263238"/>
<path d="M255.79 150.78C255.57 149.74 254.54 148.85 253.49 149.01C254.05 148.81 254.63 148.6 255.08 148.2C255.53 147.8 255.81 147.16 255.62 146.6C255.33 145.71 254.19 145.53 253.29 145.27C252.11 144.94 251.05 144.23 250.29 143.27C249.2 141.89 248.78 140.09 247.83 138.61C246.61 136.69 244.48 135.36 242.22 135.11C239.95 134.86 237.59 135.69 235.98 137.3C234.22 135.5 231.57 134.61 229.08 134.99C226.59 135.37 224.33 137.01 223.19 139.25C220.14 137.98 216.42 138.5 213.83 140.57C211.25 142.63 209.92 146.15 210.48 149.41L217.64 153.8C217.76 151.59 220.23 149.83 222.36 150.44C224.52 151.06 225.9 153.57 228.15 153.74C229.9 153.87 231.38 152.52 233.08 152.07C235.13 151.52 237.3 152.34 239.15 153.39C241 154.43 242.76 155.73 244.82 156.25C247.24 156.86 249.81 156.33 252.12 155.38C253.11 154.98 254.09 154.48 254.82 153.71C255.55 152.92 256.01 151.82 255.79 150.78Z" fill="#263238"/>
<path d="M218.88 150.41L251.68 150.22C250.6 147.99 248.73 146.23 246.71 144.78C242.36 141.67 237.07 139.8 231.72 139.85C226.37 139.9 215.67 146.72 211.9 150.51C208.88 153.55 208.97 156.1 208.97 156.1C208.6 160.36 211.11 165.13 212.17 169.27C212.72 171.41 213.84 177.89 213.84 177.89C215.65 177.83 216.28 176.38 215.95 174.6L215.42 167.6C215.42 167.6 221.44 163.06 218.31 155.16C217.83 154.55 216.75 151.66 218.88 150.41Z" fill="#263238"/>
<path d="M214.92 167.15C213.25 161.34 211.72 155.12 213.49 149.34C213.17 149.33 212.84 149.31 212.52 149.3L212.11 149.6C210.28 148.98 208.08 149.68 206.94 151.25C205.8 152.81 205.81 155.12 206.95 156.68C205.01 156.59 203.14 158.21 202.97 160.15C202.85 161.49 203.43 162.78 204.03 163.98C204.63 165.18 205.27 166.43 205.28 167.77C205.29 169.11 204.43 170.57 203.1 170.73C203.7 172.11 205.36 172.92 206.81 172.53C206.35 173.67 205.56 174.66 204.56 175.37C206.7 176.82 209.63 176.33 211.95 175.2C213.33 174.53 214.68 173.57 215.24 172.15C215.86 170.56 215.38 168.79 214.92 167.15Z" fill="#263238"/>
<path d="M214.38 173.92C214.18 173.84 206.42 171.79 206.87 179.64C207.32 187.49 215.11 185.42 215.12 185.19C215.12 184.97 214.38 173.92 214.38 173.92Z" fill="#FFBE9D"/>
<path d="M213.24 182.34C213.2 182.32 213.11 182.44 212.88 182.56C212.66 182.68 212.28 182.77 211.86 182.64C211.01 182.38 210.24 181.11 210.12 179.69C210.06 178.98 210.17 178.29 210.39 177.71C210.6 177.12 210.94 176.7 211.36 176.6C211.77 176.48 212.08 176.71 212.19 176.93C212.31 177.14 212.27 177.3 212.31 177.31C212.33 177.33 212.47 177.17 212.39 176.85C212.35 176.7 212.25 176.52 212.05 176.38C211.85 176.24 211.57 176.18 211.28 176.22C210.68 176.3 210.16 176.89 209.92 177.52C209.64 178.16 209.5 178.94 209.57 179.74C209.71 181.32 210.61 182.75 211.76 183.02C212.32 183.13 212.77 182.94 213 182.74C213.24 182.53 213.27 182.35 213.24 182.34Z" fill="#EB996E"/>
<path d="M206.23 167.41C206.21 167.43 206.01 167.11 206.09 166.5C206.16 165.9 206.6 165.03 207.56 164.45C208.51 163.87 209.82 163.73 211.16 163.58C212.48 163.44 213.99 163.06 214.75 161.76C215.51 160.49 215.53 158.94 215.36 157.64C215.17 156.32 214.82 155.12 214.65 154.09C214.23 152.01 214.63 150.68 214.7 150.72C214.79 150.73 214.56 152.01 215.07 154C215.29 155 215.68 156.17 215.91 157.56C216.1 158.93 216.13 160.59 215.26 162.08C214.82 162.81 214.13 163.37 213.39 163.66C212.65 163.96 211.91 164.06 211.22 164.14C209.85 164.26 208.64 164.36 207.77 164.83C206.91 165.28 206.46 166.02 206.33 166.54C206.18 167.07 206.28 167.4 206.23 167.41Z" fill="#455A64"/>
<path d="M204.33 163.98C204.3 163.99 204.16 163.76 204.09 163.27C204.03 162.79 204.06 162.04 204.48 161.25C204.69 160.86 204.99 160.46 205.41 160.13C205.82 159.79 206.38 159.57 206.92 159.43C207.45 159.27 208.01 159.14 208.41 158.82C208.81 158.5 208.99 157.98 209 157.38C209.02 156.78 208.93 156.15 208.95 155.52C208.96 154.9 209.03 154.3 209.15 153.74C209.39 152.62 209.8 151.67 210.28 150.93C210.75 150.17 211.51 149.8 212.02 149.82C212.54 149.82 212.76 150.06 212.73 150.08C212.71 150.13 212.47 149.99 212.03 150.06C211.59 150.11 211.03 150.45 210.64 151.16C210.25 151.86 209.9 152.79 209.7 153.85C209.6 154.38 209.55 154.94 209.55 155.53C209.54 156.11 209.64 156.72 209.62 157.41C209.62 158.08 209.37 158.86 208.79 159.29C208.22 159.72 207.6 159.83 207.08 159.98C206 160.19 205.28 160.79 204.86 161.48C204.02 162.87 204.45 163.99 204.33 163.98Z" fill="#455A64"/>
<path d="M250.29 143.27C250.34 143.28 249.7 143.7 248.67 143.21C248.17 142.99 247.67 142.51 247.19 141.95C246.71 141.38 246.16 140.77 245.37 140.33C243.84 139.46 241.35 139.23 239.45 140.72C238.48 141.42 237.62 142.41 236.49 143.23C235.93 143.63 235.27 143.99 234.52 144.14C233.78 144.29 232.99 144.18 232.28 143.93C230.86 143.42 229.75 142.55 228.53 142.11C227.31 141.64 226.04 141.43 224.84 141.45C222.42 141.46 220.32 142.37 218.89 143.5C217.43 144.63 216.58 145.89 216.08 146.79C215.59 147.7 215.41 148.26 215.36 148.24C215.34 148.23 215.37 148.09 215.44 147.82C215.51 147.55 215.65 147.16 215.87 146.68C216.32 145.73 217.14 144.38 218.62 143.16C220.07 141.94 222.27 140.92 224.83 140.89C226.1 140.86 227.44 141.06 228.74 141.56C230.06 142.04 231.2 142.91 232.48 143.36C233.12 143.59 233.77 143.67 234.4 143.55C235.03 143.43 235.6 143.12 236.13 142.75C237.19 142 238.07 141.01 239.11 140.27C240.14 139.5 241.4 139.12 242.54 139.13C243.69 139.14 244.74 139.46 245.58 139.95C246.43 140.44 247.01 141.14 247.45 141.72C247.91 142.3 248.33 142.75 248.78 142.99C249.68 143.51 250.29 143.21 250.29 143.27Z" fill="#455A64"/>
<path d="M234.52 182.41C234.77 182.35 235.05 184.03 236.69 184.98C238.33 185.93 240.08 185.44 240.14 185.68C240.18 185.78 239.8 186.07 239.04 186.22C238.3 186.37 237.18 186.31 236.18 185.73C235.18 185.15 234.64 184.24 234.47 183.56C234.28 182.87 234.4 182.42 234.52 182.41Z" fill="#263238"/>
<path d="M338 338.66C335.03 336.01 330.92 334.78 326.95 335.01L320.19 356.49C325.14 356.71 330.08 359.26 334.86 357.95C338.7 356.9 341.61 353.29 342.14 349.35C342.69 345.41 340.98 341.31 338 338.66Z" fill="#FF725E"/>
<path d="M327.08 334.51C327.09 334.34 327.81 334.2 329.13 334.22C330.43 334.26 332.37 334.4 334.66 335.26C336.96 336.11 339.46 337.85 341.39 340.49C342.36 341.81 343.17 343.38 343.64 345.15C344.12 346.91 344.2 348.88 343.81 350.78C343.42 352.69 342.58 354.48 341.35 355.91C340.12 357.35 338.55 358.34 336.99 358.93C333.84 360.11 330.81 359.92 328.49 359.48C326.15 359.02 324.39 358.34 323.19 357.84C322 357.33 321.38 356.95 321.43 356.78C321.48 356.61 322.21 356.66 323.48 356.87C324.75 357.07 326.55 357.46 328.75 357.66C330.93 357.86 333.57 357.79 336.09 356.71C337.34 356.17 338.5 355.37 339.4 354.27C340.31 353.17 340.95 351.77 341.26 350.26C341.91 347.21 340.98 344.16 339.43 341.86C337.87 339.54 335.84 337.88 333.92 336.94C331.99 335.98 330.21 335.55 328.99 335.22C327.76 334.9 327.06 334.69 327.08 334.51Z" fill="#F5F5F5"/>
<path d="M264.45 415.06L249.75 456.25L300.9 474.8C302.37 469.81 279.47 450.4 279.47 450.4L289.97 424.4L264.45 415.06Z" fill="#FF725E"/>
<g opacity="0.6">
<g opacity="0.6">
<g opacity="0.6">
<g opacity="0.6">
<g opacity="0.6">
<g opacity="0.6">
<g opacity="0.6">
<g opacity="0.6">
<g opacity="0.6">
<g opacity="0.6">
<path opacity="0.6" d="M264.46 442.45C263.37 442.36 262.28 443.23 262.15 444.31C262.02 445.39 262.89 446.51 263.97 446.61C265.06 446.72 266.39 445.72 266.4 444.63C266.41 443.54 265.32 442.29 264.24 442.44" fill="white"/>
</g>
</g>
</g>
</g>
</g>
</g>
</g>
</g>
</g>
</g>
<path d="M249.75 456.25L251.23 452.09L299.82 471.47C299.82 471.47 301.74 473.29 300.9 474.8L249.75 456.25Z" fill="white"/>
<path d="M280.4 450.44C280.3 450.69 279.01 450.35 277.49 450.7C275.96 451.02 274.93 451.87 274.74 451.69C274.53 451.56 275.44 450.2 277.29 449.8C279.13 449.39 280.53 450.23 280.4 450.44Z" fill="#263238"/>
<path d="M284.96 454.61C284.93 454.87 283.69 454.9 282.46 455.65C281.21 456.36 280.58 457.43 280.33 457.33C280.08 457.28 280.44 455.76 281.99 454.86C283.53 453.94 285.04 454.37 284.96 454.61Z" fill="#263238"/>
<path d="M285.67 462.13C285.42 462.1 285.53 460.73 286.67 459.59C287.8 458.45 289.17 458.33 289.2 458.58C289.27 458.84 288.24 459.3 287.32 460.24C286.38 461.17 285.93 462.2 285.67 462.13Z" fill="#263238"/>
<path d="M282.13 444.25C281.94 444.44 280.92 443.68 279.48 443.26C278.04 442.81 276.77 442.89 276.72 442.63C276.64 442.4 278.05 441.86 279.75 442.38C281.44 442.88 282.33 444.1 282.13 444.25Z" fill="#263238"/>
<path d="M283.11 437.74C283.08 437.84 282.03 437.64 280.55 436.8C279.81 436.38 278.98 435.79 278.17 435C277.76 434.61 277.36 434.17 276.98 433.69C276.8 433.45 276.58 433.2 276.43 432.81C276.25 432.45 276.33 431.73 276.8 431.44C277.2 431.14 277.73 431.14 278.1 431.27C278.48 431.39 278.76 431.58 279.01 431.75C279.53 432.09 280 432.48 280.4 432.87C281.22 433.67 281.81 434.52 282.2 435.28C282.99 436.81 283.05 437.89 282.95 437.91C282.81 437.95 282.51 436.96 281.63 435.61C281.19 434.94 280.59 434.19 279.81 433.49C279.42 433.14 278.98 432.81 278.5 432.5C278.01 432.16 277.55 431.99 277.32 432.18C277.24 432.25 277.22 432.29 277.27 432.49C277.33 432.68 277.5 432.9 277.68 433.14C278.03 433.6 278.39 434.02 278.75 434.4C279.48 435.17 280.23 435.78 280.88 436.25C282.23 437.19 283.17 437.61 283.11 437.74Z" fill="#263238"/>
<path d="M282.66 437.98C282.56 437.99 282.39 436.91 282.88 435.26C283.13 434.44 283.56 433.5 284.25 432.58C284.59 432.12 285 431.68 285.47 431.26C285.95 430.86 286.56 430.32 287.57 430.56C288.08 430.72 288.36 431.27 288.38 431.66C288.42 432.07 288.35 432.38 288.3 432.69C288.18 433.32 287.95 433.9 287.68 434.42C287.12 435.45 286.35 436.19 285.63 436.67C284.15 437.63 283 437.55 283.01 437.46C282.97 437.3 284.02 437.14 285.24 436.14C285.84 435.65 286.48 434.94 286.92 434.03C287.14 433.57 287.32 433.07 287.41 432.53C287.53 431.96 287.48 431.44 287.26 431.43C287.01 431.33 286.43 431.59 286.06 431.94C285.63 432.3 285.25 432.7 284.92 433.1C284.26 433.91 283.8 434.74 283.5 435.48C282.88 436.96 282.81 437.99 282.66 437.98Z" fill="#263238"/>
<path d="M214.9 305.06C207.14 305.24 199.78 306.34 194.44 311.96C187.35 319.42 178.59 330.06 178.09 337.43C177.35 348.45 183.99 351.73 188.85 354.41C191 355.6 193.45 356.13 195.9 356.04L285.58 355.36L288.4 340.17L230.4 325.88L232.81 304.05L214.9 305.06Z" fill="#263238"/>
<path d="M232.79 304.05L261 302.75C261 302.75 309.73 305.46 320.13 314.99C330.53 324.52 329.23 335.35 325.76 345.74C322.29 356.14 291.76 422.62 291.76 422.62C291.76 422.62 294.24 426.85 292.84 431.07C290.68 437.6 284.88 438.65 284.88 438.65L257.76 428.68C257.76 428.68 254.08 427.38 256.68 423.92C259.28 420.45 261.01 419.81 261.01 419.81V412.88C261.01 412.88 270.54 395.55 271.41 393.17C272.28 390.79 281.41 355.53 281.41 355.53L287.48 345.1C287.48 345.1 272.81 338.2 260.09 333.2L230.39 325.88L232.79 304.05Z" fill="#263238"/>
<path d="M278.55 427.43C278.5 427.5 277.64 426.82 276.17 425.87C274.7 424.92 272.59 423.74 270.1 422.79C267.61 421.85 265.24 421.32 263.51 421.06C261.78 420.79 260.69 420.73 260.7 420.65C260.7 420.59 261.8 420.52 263.56 420.7C265.32 420.87 267.75 421.35 270.29 422.31C272.83 423.28 274.95 424.53 276.39 425.57C277.81 426.61 278.59 427.39 278.55 427.43Z" fill="#455A64"/>
<path d="M292.1 422.67C292.05 422.71 291.44 422.08 290.52 421.01C289.61 419.94 288.39 418.41 287.11 416.68C285.83 414.95 284.74 413.33 283.99 412.14C283.24 410.95 282.82 410.18 282.87 410.14C282.93 410.1 283.46 410.79 284.29 411.93C285.24 413.23 286.32 414.72 287.52 416.37C288.74 418.01 289.84 419.49 290.8 420.78C291.65 421.91 292.16 422.62 292.1 422.67Z" fill="#455A64"/>
<path d="M302.04 335.58C302.06 335.66 301.04 335.88 299.47 336.4C297.9 336.92 295.78 337.8 293.63 339.14C291.49 340.48 289.76 342 288.61 343.18C287.45 344.36 286.81 345.18 286.74 345.13C286.69 345.1 287.23 344.2 288.34 342.93C289.44 341.66 291.17 340.06 293.36 338.69C295.55 337.33 297.74 336.48 299.37 336.04C300.99 335.61 302.03 335.52 302.04 335.58Z" fill="#455A64"/>
<path d="M274.3 382.66C274.28 382.66 274.32 382.45 274.41 382.07C274.52 381.64 274.66 381.09 274.83 380.42C275.23 378.92 275.78 376.87 276.45 374.37C277.89 369.21 279.84 362.2 282 354.46C283.13 350.58 284.09 346.87 285.18 343.52C286.44 340.19 288.44 337.63 290.29 335.73C292.15 333.83 293.9 332.55 295.14 331.73C295.77 331.33 296.26 331.03 296.6 330.85C296.94 330.66 297.13 330.57 297.13 330.59C297.15 330.63 296.45 331.05 295.25 331.9C294.05 332.76 292.36 334.07 290.55 335.98C288.76 337.88 286.83 340.43 285.63 343.68C284.59 346.99 283.62 350.73 282.5 354.6C280.28 362.33 278.28 369.32 276.8 374.47C276.06 376.96 275.46 378.99 275.02 380.48C274.81 381.14 274.64 381.68 274.51 382.11C274.39 382.47 274.32 382.67 274.3 382.66Z" fill="#455A64"/>
<path d="M249.35 331.87C249.21 331.88 248.61 326.61 248.03 320.09C247.44 313.57 247.08 308.27 247.22 308.26C247.36 308.25 247.96 313.52 248.54 320.04C249.13 326.56 249.49 331.86 249.35 331.87Z" fill="#455A64"/>
<path d="M202.39 345.95C202.31 345.99 201.88 345.14 200.99 343.88C200.11 342.63 198.73 341.01 196.89 339.58C195.05 338.15 193.15 337.19 191.72 336.65C190.29 336.1 189.36 335.88 189.38 335.79C189.39 335.74 190.36 335.82 191.85 336.3C193.34 336.77 195.32 337.7 197.22 339.17C199.11 340.65 200.49 342.35 201.3 343.68C202.12 345.01 202.44 345.93 202.39 345.95Z" fill="#455A64"/>
<path d="M219.68 326.8C219.63 326.88 218.43 326.11 216.36 325.17C214.29 324.22 211.3 323.19 207.87 322.69C204.43 322.2 201.27 322.36 199.02 322.68C196.77 323 195.4 323.4 195.38 323.31C195.37 323.28 195.7 323.15 196.31 322.96C196.92 322.75 197.83 322.53 198.96 322.32C201.22 321.9 204.44 321.68 207.94 322.17C211.43 322.68 214.46 323.79 216.51 324.84C217.54 325.36 218.34 325.83 218.87 326.2C219.41 326.56 219.69 326.77 219.68 326.8Z" fill="#455A64"/>
<path d="M287.23 340.16C287.23 340.18 286.98 340.14 286.53 340.04C286.02 339.93 285.36 339.79 284.54 339.61C282.76 339.21 280.27 338.65 277.23 337.97C271.06 336.59 262.52 334.73 253.05 332.86C243.58 330.99 234.98 329.45 228.74 328.37C225.67 327.84 223.16 327.41 221.36 327.1C220.53 326.95 219.86 326.83 219.35 326.74C218.89 326.65 218.65 326.6 218.66 326.58C218.67 326.56 218.91 326.58 219.37 326.64C219.88 326.71 220.55 326.79 221.39 326.9C223.14 327.14 225.68 327.51 228.8 328C235.05 328.98 243.67 330.46 253.15 332.34C262.62 334.22 271.16 336.13 277.31 337.6C280.39 338.34 282.87 338.95 284.58 339.4C285.39 339.62 286.05 339.79 286.55 339.93C287 340.07 287.23 340.14 287.23 340.16Z" fill="#455A64"/>
<path d="M230.38 328.45C230.28 328.48 230.07 327.26 229.14 325.58C228.67 324.75 227.99 323.82 227.09 322.93C226.2 322.03 225.11 321.12 223.95 320.21C221.61 318.42 219.23 317.15 217.53 316.22C215.81 315.3 214.75 314.73 214.79 314.66C214.82 314.6 215.94 315.05 217.7 315.89C219.45 316.74 221.89 317.97 224.27 319.79C225.45 320.71 226.54 321.63 227.44 322.58C228.35 323.52 229.03 324.51 229.47 325.39C229.91 326.28 230.15 327.05 230.27 327.58C230.39 328.14 230.41 328.45 230.38 328.45Z" fill="#455A64"/>
<path d="M330.27 342.02C330.39 342.13 328.89 343.65 327.72 345.95C326.53 348.24 326.17 350.35 326.01 350.32C325.88 350.32 326.02 348.1 327.25 345.72C328.47 343.31 330.19 341.91 330.27 342.02Z" fill="#263238"/>
<g opacity="0.3">
<g opacity="0.3">
<path opacity="0.3" d="M266.08 239.54L272.5 284.76L272.82 285.48C274.33 269.92 272 254 266.08 239.54Z" fill="black"/>
</g>
</g>
<path d="M300.65 265.52L279.78 302.03L228.35 303.15L228.22 305.48L278.02 305.11L279.6 305.06L332.19 305.16L342.82 286.83L356.4 267.37C357.29 266.09 356.37 264.35 354.82 264.35L302.33 264.55C301.62 264.56 300.99 264.93 300.65 265.52Z" fill="#E0E0E0"/>
<path d="M342.81 286.83C342.81 286.83 345.51 289.31 345.09 291.41C344.66 293.51 344.81 295.08 342.81 295.22C342.81 295.22 342.95 297.92 340.11 298.35C340.11 298.35 340.72 301.65 336.88 302.22C336.88 302.22 335.7 305.75 333.28 304.89C330.86 304.04 329.3 303.04 329.3 303.04L328.59 301.76C328.59 301.76 325.03 300.42 325.91 298.41C326.44 297.19 328.29 296.87 328.29 296.87C328.29 296.87 327.52 295.08 328.52 293.74C329.37 292.59 332.16 293.54 332.16 293.54C332.16 293.54 332 292.06 333.04 290.82C333.99 289.7 338.41 292.75 338.41 292.75L340.83 289.87L342.81 286.83Z" fill="#FFBE9D"/>
<path d="M336.88 302.22C336.8 302.34 334.82 301.24 332.44 299.77C330.06 298.29 328.2 297 328.28 296.88C328.36 296.76 330.34 297.85 332.72 299.33C335.09 300.8 336.95 302.1 336.88 302.22Z" fill="#EB996E"/>
<path d="M340.11 298.35C340.04 298.47 338.19 297.5 335.99 296.17C333.79 294.84 332.07 293.67 332.14 293.55C332.21 293.43 334.06 294.4 336.26 295.73C338.46 297.05 340.18 298.23 340.11 298.35Z" fill="#EB996E"/>
<path d="M335.71 291.11C335.79 290.96 337.44 291.83 339.36 293.05C341.28 294.28 342.83 295.23 342.79 295.33C342.72 295.5 341 294.72 339.08 293.49C337.15 292.27 335.65 291.22 335.71 291.11Z" fill="#EB996E"/>
<path d="M356.39 265.74C356.39 265.75 356.3 265.76 356.14 265.77C355.94 265.78 355.7 265.79 355.4 265.8C354.71 265.81 353.76 265.83 352.56 265.85C350.05 265.87 346.49 265.9 342.12 265.93C333.26 265.95 321.1 265.98 307.67 266.01C306.83 266.01 305.99 266.01 305.16 266.01C304.37 265.95 303.66 266.3 303.25 266.91C302.46 268.34 301.68 269.74 300.91 271.13C299.37 273.9 297.89 276.58 296.48 279.13C293.65 284.22 291.1 288.8 288.95 292.66C286.81 296.47 285.06 299.57 283.83 301.76C283.23 302.8 282.76 303.62 282.42 304.22C282.27 304.48 282.14 304.68 282.04 304.85C281.95 304.99 281.9 305.06 281.9 305.06C281.89 305.06 281.93 304.98 282 304.83C282.09 304.65 282.2 304.44 282.33 304.17C282.65 303.56 283.1 302.72 283.66 301.66C284.86 299.45 286.55 296.33 288.63 292.48C290.75 288.6 293.27 284 296.07 278.89C297.47 276.33 298.95 273.65 300.48 270.87C301.25 269.48 302.03 268.06 302.83 266.62C303.32 265.84 304.3 265.41 305.17 265.48C306 265.48 306.84 265.48 307.68 265.48C321.12 265.51 333.28 265.54 342.13 265.56C346.51 265.59 350.06 265.62 352.57 265.64C353.77 265.66 354.72 265.68 355.41 265.69C355.71 265.7 355.95 265.71 356.15 265.72C356.31 265.72 356.39 265.73 356.39 265.74Z" fill="#263238"/>
<path d="M319.39 284.09C318.46 285.12 318.44 286.61 319.34 287.43C320.24 288.24 321.73 288.07 322.66 287.04C323.59 286.01 323.61 284.52 322.71 283.7C321.8 282.89 320.31 283.06 319.39 284.09Z" fill="white"/>
<g opacity="0.3">
<g opacity="0.3">
<path opacity="0.3" d="M173.39 269.97C172.94 270.15 172.44 270.45 172.43 270.93C172.43 271.32 172.79 271.63 173.17 271.71C173.55 271.79 174.93 271.22 175.31 271.14C180.72 269.95 185.17 271.09 190.32 273.11L190.49 272.94C188.44 268.61 179.21 267.63 173.39 269.97Z" fill="black"/>
</g>
</g>
<path d="M452.02 472.96C452.02 473.1 361.56 473.22 250.01 473.22C138.41 473.22 47.98 473.1 47.98 472.96C47.98 472.82 138.42 472.7 250.01 472.7C361.57 472.7 452.02 472.81 452.02 472.96Z" fill="#263238"/>
<path d="M145.42 154.21C145.59 154.38 178.8 142.97 178.8 142.97L166.03 113.67L136.47 124.97L152.73 134.31L145.42 154.21Z" fill="#455A64"/>
<path d="M160.99 122.49V82.5999C160.99 82.5999 206.8 74.2299 239.8 74.7199C272.8 75.2099 306.79 80.6299 306.79 80.6299V118.93C306.8 118.93 203.36 109.69 160.99 122.49Z" fill="#455A64"/>
<path d="M160.76 122.53L178.8 143.14V118.93C178.8 118.93 163.71 120.73 160.76 122.53Z" fill="#263238"/>
<path d="M160.99 82.5898C161.13 82.5898 161.2 91.5298 161.13 102.56C161.06 113.59 160.89 122.53 160.75 122.53C160.61 122.53 160.54 113.59 160.61 102.56C160.68 91.5298 160.85 82.5898 160.99 82.5898Z" fill="#263238"/>
<path d="M322.32 151.15C322.15 151.32 288.94 139.91 288.94 139.91L301.71 110.61L331.27 121.91L315.01 131.25L322.32 151.15Z" fill="#455A64"/>
<path d="M306.98 119.47L288.94 140.08V117.62C294.96 117.82 300.97 118.44 306.98 119.47Z" fill="#263238"/>
<path d="M306.8 80.6299C306.94 80.6299 307.1 89.3199 307.15 100.05C307.2 110.78 307.13 119.47 306.98 119.47C306.84 119.47 306.68 110.78 306.63 100.05C306.58 89.3299 306.65 80.6299 306.8 80.6299Z" fill="#263238"/>
<path d="M186.83 100.09C186.39 96.9101 188.52 94.2901 191.8 93.8401C193.62 93.5901 195.24 94.0401 196.4 95.1101L195.03 96.7701C194.21 96.0501 193.26 95.7601 192.21 95.9001C190.24 96.1701 189.03 97.7601 189.3 99.7501C189.58 101.74 191.17 102.93 193.15 102.66C194.21 102.51 195.04 101.97 195.63 101.04L197.4 102.27C196.57 103.63 195.14 104.5 193.3 104.76C190.03 105.21 187.27 103.27 186.83 100.09Z" fill="white"/>
<path d="M197.74 98.59C197.42 95.44 199.63 92.86 202.97 92.51C206.3 92.17 209.01 94.23 209.33 97.39C209.66 100.55 207.43 103.12 204.1 103.47C200.76 103.81 198.07 101.74 197.74 98.59ZM206.85 97.65C206.64 95.64 205.08 94.41 203.19 94.6C201.3 94.79 200.02 96.32 200.22 98.33C200.43 100.34 201.99 101.57 203.88 101.38C205.78 101.19 207.06 99.66 206.85 97.65Z" fill="white"/>
<path d="M221.31 101.92L220.88 95.5401L218.09 100.99L216.98 101.06L213.54 96.1401L213.94 102.38L211.63 102.53L210.95 91.9001L212.98 91.7701L217.38 98.1201L220.87 91.2601L222.89 91.1301L223.6 101.76L221.31 101.92Z" fill="white"/>
<path d="M235.08 94.6399C235.15 97.0099 233.41 98.5399 230.56 98.6199L228.42 98.6799L228.5 101.62L226.04 101.69L225.74 91.0399L230.35 90.9099C233.19 90.8299 235.01 92.2599 235.08 94.6399ZM232.58 94.7099C232.55 93.5399 231.77 92.8799 230.26 92.9199L228.25 92.9799L228.35 96.6799L230.36 96.6199C231.87 96.5799 232.61 95.8699 232.58 94.7099Z" fill="white"/>
<path d="M236.95 90.77H239.41V99.41H244.75V101.42H236.95V90.77Z" fill="white"/>
<path d="M254.35 99.7201L254.29 101.7L246.04 101.46L246.35 90.8101L254.4 91.0401L254.34 93.0201L248.74 92.8601L248.67 95.1701L253.61 95.3101L253.55 97.2301L248.61 97.0901L248.54 99.5501L254.35 99.7201Z" fill="white"/>
<path d="M258.91 93.3001L255.51 93.1001L255.63 91.1001L264.89 91.6601L264.77 93.6601L261.37 93.4501L260.85 102.07L258.39 101.92L258.91 93.3001Z" fill="white"/>
<path d="M273.86 101.18L273.68 103.15L265.47 102.39L266.45 91.78L274.47 92.52L274.29 94.49L268.71 93.97L268.5 96.27L273.42 96.73L273.24 98.64L268.32 98.18L268.09 100.63L273.86 101.18Z" fill="white"/>
<path d="M276.94 92.79L281.73 93.43C285.18 93.89 287.27 96.29 286.84 99.48C286.41 102.68 283.77 104.44 280.32 103.98L275.53 103.34L276.94 92.79ZM280.47 101.96C282.57 102.24 284.1 101.17 284.37 99.15C284.64 97.13 283.44 95.69 281.34 95.42L279.11 95.12L278.24 101.66L280.47 101.96Z" fill="white"/>
<path d="M327.29 84.26L329.91 87.33L337.29 84.26L335.13 81.03L327.29 84.26Z" fill="#455A64"/>
<path d="M323.91 69.6501C323.91 71.7701 322.19 73.4901 320.07 73.4901C317.95 73.4901 316.23 71.7701 316.23 69.6501C316.23 67.5301 317.95 65.8101 320.07 65.8101C322.19 65.8101 323.91 67.5301 323.91 69.6501Z" fill="#FF725E"/>
<path d="M237.89 126.93C237.89 127.99 237.03 128.85 235.97 128.85C234.91 128.85 234.05 127.99 234.05 126.93C234.05 125.87 234.91 125.01 235.97 125.01C237.03 125.01 237.89 125.87 237.89 126.93Z" fill="#FF725E"/>
<path d="M148.44 98.0701C148.44 98.8801 147.79 99.5301 146.98 99.5301C146.18 99.5301 145.52 98.8801 145.52 98.0701C145.52 97.2601 146.17 96.6101 146.98 96.6101C147.78 96.6101 148.44 97.2601 148.44 98.0701Z" fill="#FF725E"/>
<path d="M143.02 82L147.32 82.26L149.36 73.8L145.35 73.97L143.02 82Z" fill="#455A64"/>
<path d="M277.42 149.53L278.87 153.59L287.45 152.15L285.72 148.52L277.42 149.53Z" fill="#FF725E"/>
<path d="M190.64 126.1L187.99 129.5L193.8 135.97L195.94 132.56L190.64 126.1Z" fill="#455A64"/>
<path d="M180.36 46.22L190.52 56.58L204.82 51.18L205.38 54.73L199.19 67.4L204.9 76.86L204.42 79.69L190.59 77.36L182.41 86.33L180.49 84.88L178.8 73.47L165.9 66.75L165.33 64.15L178.32 60.59L180.36 46.22Z" fill="#FF725E"/>
<g opacity="0.3">
<path opacity="0.3" d="M180.36 46.22L190.52 56.58L204.82 51.18L205.38 54.73L199.19 67.4L204.9 76.86L204.42 79.69L190.59 77.36L182.41 86.33L180.49 84.88L178.8 73.47L165.9 66.75L165.33 64.15L178.32 60.59L180.36 46.22Z" fill="black"/>
</g>
<path d="M180.36 43.3201L190.52 53.6801L204.82 51.1801L198.1 64.0401L204.9 76.8601L190.59 74.4601L180.49 84.8801L178.36 70.5301L165.33 64.1501L178.32 57.6801L180.36 43.3201Z" fill="#FF725E"/>
<path d="M285.62 46.22L275.46 56.58L261.17 51.18L260.6 54.73L266.79 67.4L261.08 76.86L261.56 79.69L275.39 77.36L283.57 86.33L285.49 84.88L287.18 73.47L300.08 66.75L300.65 64.15L287.66 60.59L285.62 46.22Z" fill="#FF725E"/>
<g opacity="0.3">
<path opacity="0.3" d="M285.62 46.22L275.46 56.58L261.17 51.18L260.6 54.73L266.79 67.4L261.08 76.86L261.56 79.69L275.39 77.36L283.57 86.33L285.49 84.88L287.18 73.47L300.08 66.75L300.65 64.15L287.66 60.59L285.62 46.22Z" fill="black"/>
</g>
<path d="M285.62 43.3201L275.46 53.6801L261.17 51.1801L267.88 64.0401L261.08 76.8601L275.39 74.4601L285.49 84.8801L287.62 70.5301L300.65 64.1501L287.66 57.6801L285.62 43.3201Z" fill="#FF725E"/>
<path d="M232.66 28.0601L241.11 44.5701L260.6 43.4201L259.94 47.9601L247.56 61.0701L250.92 74.7901L249.26 78.0501L233.27 69.9401L219.88 77.7801L218.09 75.2701L220.37 60.7001L207.19 47.5901L207.49 44.2001L224.69 44.8101L232.66 28.0601Z" fill="#FF725E"/>
<g opacity="0.3">
<path opacity="0.3" d="M232.66 28.0601L241.11 44.5701L260.6 43.4201L259.94 47.9601L247.56 61.0701L250.92 74.7901L249.26 78.0501L233.27 69.9401L219.88 77.7801L218.09 75.2701L220.37 60.7001L207.19 47.5901L207.49 44.2001L224.69 44.8101L232.66 28.0601Z" fill="black"/>
</g>
<path d="M233.76 24.52L242.21 41.02L260.6 43.42L247.51 56.56L250.92 74.79L234.38 66.4L218.09 75.27L220.96 56.95L207.49 44.2L225.8 41.26L233.76 24.52Z" fill="#FF725E"/>
<path d="M267.43 172.63L281.55 174.19C284.95 169.35 289.69 165.36 295.52 162.85C312.29 155.63 331.73 163.38 338.95 180.15C346.17 196.92 338.42 216.36 321.65 223.58C304.88 230.8 285.44 223.05 278.22 206.28C275.21 199.28 274.81 191.81 276.58 184.96L276.57 184.98L267.43 172.63Z" fill="#FAFAFA"/>
<path d="M267.43 172.63C267.98 173.37 270.84 177.15 276.68 184.9L276.46 184.91L276.47 184.89C276.5 184.83 276.58 184.8 276.65 184.84C276.7 184.87 276.73 184.93 276.71 184.99C275.54 189.56 275.09 195.57 276.93 202.06C277.4 203.67 277.97 205.32 278.76 206.92C279.16 207.72 279.54 208.54 279.98 209.35C280.47 210.13 280.96 210.92 281.46 211.72C283.61 214.82 286.4 217.74 289.81 220.1C293.21 222.47 297.23 224.29 301.6 225.24C305.97 226.2 310.7 226.31 315.36 225.3C320.01 224.29 324.57 222.24 328.53 219.2C332.47 216.16 335.89 212.18 338.08 207.48C340.34 202.71 341.54 197.49 341.36 192.39C341.22 187.3 339.88 182.37 337.66 178.07C335.44 173.77 332.34 170.06 328.72 167.29C325.12 164.5 321.07 162.58 317.01 161.49C312.94 160.4 308.87 160.15 305.07 160.53C301.26 160.93 297.81 162.07 294.72 163.39C288.57 166.21 284.33 170.47 281.65 174.24C281.62 174.28 281.58 174.3 281.53 174.29C272.6 173.25 268.3 172.74 267.43 172.63C268.31 172.72 272.61 173.15 281.57 174.06L281.45 174.11C284.11 170.29 288.36 165.96 294.57 163.07C297.68 161.71 301.18 160.54 305.03 160.13C308.87 159.73 313 159.97 317.13 161.07C321.25 162.16 325.35 164.1 329.02 166.92C332.69 169.72 335.84 173.48 338.11 177.84C340.38 182.2 341.74 187.2 341.89 192.38C342.08 197.56 340.86 202.86 338.57 207.71C336.34 212.49 332.87 216.53 328.86 219.62C324.84 222.71 320.2 224.79 315.48 225.8C310.75 226.81 305.94 226.69 301.51 225.71C297.07 224.73 293.01 222.88 289.56 220.47C286.11 218.06 283.29 215.1 281.13 211.95C280.63 211.14 280.13 210.34 279.64 209.55C279.2 208.73 278.82 207.9 278.42 207.09C277.63 205.47 277.06 203.8 276.59 202.17C274.76 195.6 275.26 189.53 276.47 184.93L276.71 185.03L276.7 185.05C276.67 185.11 276.59 185.14 276.52 185.1C276.5 185.09 276.49 185.08 276.48 185.06C270.76 177.21 267.97 173.37 267.43 172.63Z" fill="#263238"/>
<path d="M296.4 181.44C296.41 181.45 296.42 181.6 296.43 181.9C296.44 182.23 296.45 182.65 296.46 183.18C296.47 184.33 296.49 185.95 296.52 187.99C296.55 192.14 296.59 197.98 296.63 204.98L296.4 204.75C303.25 204.74 311.32 204.73 319.93 204.71C319.99 204.65 319.44 205.2 319.67 204.97V204.96V204.95V204.92V204.87V204.77V204.57V204.17V203.37C319.67 202.84 319.67 202.3 319.67 201.77C319.67 200.71 319.67 199.66 319.67 198.62C319.67 196.54 319.67 194.51 319.68 192.54C319.69 188.59 319.7 184.86 319.71 181.44L319.94 181.67C312.94 181.62 307.1 181.58 302.95 181.56C300.91 181.53 299.3 181.52 298.14 181.5C297.61 181.49 297.19 181.48 296.86 181.47C296.57 181.46 296.41 181.45 296.4 181.44C296.39 181.43 296.53 181.42 296.81 181.41C297.13 181.4 297.54 181.39 298.05 181.38C299.19 181.37 300.79 181.35 302.81 181.32C306.99 181.29 312.89 181.25 319.94 181.21H320.16V181.44C320.17 184.86 320.18 188.59 320.19 192.54C320.19 194.52 320.19 196.55 320.2 198.62C320.2 199.66 320.2 200.71 320.2 201.77C320.2 202.3 320.2 202.83 320.2 203.37V204.17V204.57V204.77V204.87V204.92V204.95V204.96V204.97C320.43 204.74 319.88 205.29 319.94 205.23C311.33 205.22 303.26 205.21 296.41 205.19H296.18V204.96C296.23 197.9 296.27 192.01 296.29 187.83C296.31 185.82 296.33 184.22 296.35 183.07C296.36 182.56 296.37 182.15 296.38 181.83C296.38 181.57 296.39 181.44 296.4 181.44Z" fill="#263238"/>
<path d="M317.39 185.33C317.73 185.6 314.56 190.16 310.32 195.51C309.47 196.58 308.65 197.6 307.88 198.53L307.38 199.14L306.82 198.63C303.14 195.32 300.65 192.78 300.88 192.52C301.11 192.26 303.98 194.36 307.79 197.51L306.72 197.61C307.45 196.65 308.25 195.61 309.1 194.54C313.34 189.19 317.06 185.07 317.39 185.33Z" fill="#FF725E"/>
</svg>
